<?xml version="1.0" encoding="UTF-8" standalone="no"?><!DOCTYPE svg PUBLIC "-//W3C//DTD SVG 1.1//EN" "http://www.w3.org/Graphics/SVG/1.1/DTD/svg11.dtd"><svg width="100%" height="100%" viewBox="0 0 800 520" version="1.1" xmlns="http://www.w3.org/2000/svg" xmlns:xlink="http://www.w3.org/1999/xlink" xml:space="preserve" xmlns:serif="http://www.serif.com/" style="fill-rule:evenodd;clip-rule:evenodd;stroke-linejoin:round;stroke-miterlimit:1.41421;"><g id="List"><path d="M800,420l0,49.77c0,27.723 -22.507,50.23 -50.23,50.23l-699.54,0c-27.723,0 -50.23,-22.507 -50.23,-50.23l0,-49.77l800,0Zm0,-40l-800,0l0,-100l800,0l0,100Zm0,-140l-800,0l0,-100l800,0l0,100Zm-50.23,-240c27.723,0 50.23,22.507 50.23,50.23l0,49.77l-800,0l0,-49.77c0,-27.723 22.507,-50.23 50.23,-50.23l699.54,0Z" style="fill:#e3ecec;"/><g id="Cross"><path d="M569.603,114.411l3.626,1.315l3.206,2.145l2.599,2.849l1.842,3.389l0.978,3.732l0.056,3.856l-0.869,3.759l-1.742,3.441l-2.516,2.924l-3.142,2.237l-3.586,1.42l-0.26,0.035l-0.011,0.005l-0.118,0.059l-0.128,0.065l-0.137,0.071l-0.149,0.077l-0.158,0.083l-0.166,0.089l-0.174,0.094l-0.184,0.101l-0.191,0.105l-0.199,0.111l-0.206,0.116l-0.213,0.121l-0.221,0.126l-0.226,0.131l-0.233,0.135l-0.24,0.14l-0.246,0.146l-0.252,0.149l-0.256,0.153l-0.263,0.158l-0.269,0.163l-0.274,0.166l-0.279,0.171l-0.284,0.174l-0.289,0.178l-0.295,0.183l-0.299,0.186l-0.297,0.186l-0.627,0.394l-0.639,0.406l-0.655,0.419l-0.672,0.432l-0.687,0.445l-0.703,0.458l-0.717,0.47l-0.731,0.481l-0.744,0.493l-0.757,0.504l-0.769,0.514l-0.781,0.525l-0.793,0.534l-0.803,0.544l-0.814,0.553l-0.824,0.562l-0.833,0.57l-0.842,0.578l-0.851,0.587l-0.859,0.593l-0.866,0.6l-0.874,0.607l-0.881,0.614l-0.887,0.62l-0.893,0.625l-0.898,0.63l-0.905,0.636l-0.908,0.641l-0.913,0.645l-0.917,0.649l-0.92,0.652l-0.923,0.657l-0.926,0.659l-0.928,0.662l-0.93,0.664l-0.932,0.667l-0.932,0.669l-0.934,0.67l-0.933,0.671l-0.933,0.672l-0.933,0.673l-0.932,0.672l-0.928,0.672l-1.857,1.346l-1.845,1.34l-1.831,1.333l-1.815,1.325l-1.795,1.312l-1.772,1.299l-1.746,1.282l-1.717,1.263l-1.684,1.241l-1.649,1.217l-1.61,1.191l-1.568,1.161l-1.523,1.13l-1.476,1.095l-1.423,1.059l-1.37,1.02l-1.312,0.978l-1.251,0.934l-1.188,0.888l-1.118,0.837l-2.03,1.522l-1.722,1.293l-1.392,1.048l-1.035,0.78l-0.654,0.495l-2.988,2.263l-2.987,2.265l-2.985,2.268l-1.49,1.133l-1.489,1.134l-1.489,1.135l-1.488,1.135l-1.488,1.135l-1.487,1.136l-1.485,1.136l-1.485,1.137l-1.484,1.137l-1.483,1.137l-1.482,1.138l-1.482,1.138l-1.48,1.139l-1.48,1.139l-1.479,1.14l-1.478,1.14l-1.477,1.141l-1.476,1.141l-1.475,1.142l-1.475,1.142l-1.473,1.143l-1.473,1.144l-1.471,1.144l-1.471,1.145l-1.47,1.146l-1.469,1.146l-1.468,1.146l-1.467,1.148l-1.466,1.148l-1.465,1.149l-1.464,1.149l-1.463,1.151l-1.462,1.151l-1.462,1.152l-1.46,1.152l-1.459,1.153l-1.459,1.155l-1.457,1.154l-1.456,1.156l-1.456,1.157l-1.454,1.157l-1.453,1.158l-1.453,1.16l-1.451,1.16l-1.45,1.16l-1.449,1.162l-1.449,1.163l-1.447,1.164l-1.446,1.164l-1.445,1.166l-1.444,1.166l-1.443,1.168l-1.442,1.168l-1.441,1.17l-1.44,1.171l-1.439,1.171l-1.437,1.173l-1.437,1.174l-1.435,1.174l-1.435,1.176l-1.433,1.177l-1.432,1.179l-1.432,1.179l-1.429,1.18l-1.429,1.182l-1.428,1.182l-1.427,1.184l-1.425,1.185l-1.425,1.187l-1.423,1.187l-1.422,1.189l-1.421,1.19l-1.42,1.191l-1.418,1.193l-1.418,1.194l-1.416,1.195l-1.415,1.196l-1.414,1.198l-1.413,1.199l-1.412,1.201l-1.41,1.202l-1.409,1.203l-1.408,1.205l-1.407,1.205l-1.406,1.208l-1.404,1.209l-1.403,1.21l-1.402,1.212l-1.401,1.213l-1.4,1.215l-1.398,1.216l-1.397,1.218l-1.396,1.219l-1.394,1.221l-1.394,1.223l-1.391,1.223l-1.391,1.226l-1.39,1.227l-1.388,1.229l-1.387,1.23l-1.385,1.232l-1.385,1.233l-1.383,1.236l-1.382,1.237l-1.38,1.238l-1.379,1.24l-1.378,1.242l-1.377,1.244l-1.375,1.246l-1.374,1.247l-1.372,1.249l-1.372,1.25l-1.37,1.253l-1.368,1.254l-1.368,1.256l-1.365,1.258l-1.365,1.26l-1.363,1.262l-1.362,1.263l-1.36,1.266l-1.359,1.267l-1.37,1.28l-0.671,0.626l-0.821,0.765l-0.952,0.888l-1.079,1.009l-0.579,0.543l-0.609,0.572l-0.635,0.598l-0.659,0.623l-0.683,0.647l-0.705,0.67l-0.725,0.691l-0.745,0.713l-0.762,0.731l-0.778,0.75l-0.793,0.768l-0.805,0.783l-0.817,0.798l-0.831,0.815l-0.414,0.408l-0.419,0.414l-0.421,0.417l-0.423,0.419l-0.423,0.422l-0.425,0.425l-0.427,0.427l-0.427,0.428l-0.427,0.431l-0.428,0.432l-0.428,0.435l-0.428,0.435l-0.429,0.438l-0.428,0.438l-0.427,0.439l-0.426,0.44l-0.426,0.441l-0.424,0.441l-0.424,0.442l-0.421,0.442l-0.42,0.441l-0.418,0.443l-0.416,0.441l-0.413,0.441l-0.411,0.44l-0.409,0.44l-0.405,0.439l-0.402,0.437l-0.399,0.436l-0.395,0.435l-0.391,0.433l-0.388,0.431l-0.382,0.428l-0.379,0.427l-0.374,0.424l-0.369,0.421l-0.364,0.418l-0.358,0.415l-0.353,0.412l-0.348,0.408l-0.341,0.404l-0.334,0.4l-0.328,0.395l-0.322,0.392l-0.315,0.386l-0.306,0.38l-0.3,0.375l-0.299,0.378l-0.136,0.174l-0.14,0.18l-0.139,0.18l-0.137,0.177l-0.134,0.175l-0.132,0.174l-0.13,0.172l-0.128,0.17l-0.125,0.168l-0.123,0.167l-0.121,0.164l-0.118,0.161l-0.115,0.16l-0.115,0.158l-0.11,0.155l-0.109,0.154l-0.105,0.15l-0.103,0.147l-0.101,0.146l-0.097,0.143l-0.095,0.139l-0.091,0.137l-0.09,0.136l-0.087,0.131l-0.082,0.126l-0.081,0.126l-0.078,0.123l-0.074,0.117l-0.071,0.114l-0.068,0.11l-0.064,0.107l-0.063,0.104l-0.059,0.1l-0.054,0.093l-0.052,0.091l-0.049,0.086l-0.045,0.081l-0.042,0.077l-0.038,0.071l-0.034,0.065l-0.029,0.056l-0.148,1.151l-1.392,3.598l-2.212,3.159l-2.905,2.539l-3.427,1.769l-3.751,0.898l-3.857,-0.026l-3.739,-0.948l-3.403,-1.816l-2.87,-2.577l-2.17,-3.189l-1.343,-3.616l-0.439,-3.832l0.001,-0.165l0.005,-0.27l0.009,-0.267l0.012,-0.26l0.015,-0.257l0.021,-0.303l0.04,-0.45l0.054,-0.483l0.063,-0.47l0.071,-0.455l0.078,-0.443l0.084,-0.43l0.091,-0.421l0.096,-0.409l0.1,-0.397l0.104,-0.387l0.109,-0.38l0.113,-0.372l0.115,-0.36l0.118,-0.354l0.121,-0.347l0.124,-0.34l0.126,-0.335l0.129,-0.33l0.13,-0.322l0.132,-0.317l0.134,-0.312l0.136,-0.307l0.138,-0.306l0.14,-0.3l0.14,-0.294l0.142,-0.293l0.145,-0.29l0.146,-0.287l0.146,-0.282l0.149,-0.282l0.15,-0.28l0.15,-0.275l0.153,-0.275l0.154,-0.271l0.155,-0.27l0.157,-0.271l0.158,-0.266l0.158,-0.265l0.161,-0.265l0.162,-0.263l0.163,-0.263l0.165,-0.262l0.164,-0.258l0.167,-0.259l0.169,-0.26l0.17,-0.257l0.169,-0.256l0.172,-0.256l0.174,-0.257l0.175,-0.255l0.175,-0.254l0.177,-0.254l0.179,-0.255l0.178,-0.253l0.181,-0.253l0.181,-0.251l0.184,-0.254l0.184,-0.253l0.185,-0.251l0.187,-0.252l0.188,-0.252l0.189,-0.252l0.19,-0.251l0.191,-0.251l0.193,-0.253l0.193,-0.251l0.194,-0.25l0.196,-0.252l0.204,-0.26l0.389,-0.493l0.401,-0.502l0.406,-0.503l0.409,-0.502l0.413,-0.502l0.417,-0.503l0.421,-0.503l0.424,-0.502l0.428,-0.503l0.431,-0.503l0.434,-0.502l0.438,-0.503l0.441,-0.503l0.442,-0.502l0.446,-0.502l0.449,-0.503l0.45,-0.501l0.453,-0.501l0.455,-0.5l0.457,-0.5l0.459,-0.499l0.46,-0.498l0.462,-0.498l0.463,-0.496l0.465,-0.496l0.465,-0.494l0.466,-0.492l0.467,-0.492l0.468,-0.49l0.467,-0.488l0.468,-0.487l0.468,-0.485l0.468,-0.482l0.469,-0.482l0.467,-0.478l0.466,-0.476l0.466,-0.474l0.465,-0.471l0.464,-0.469l0.463,-0.467l0.461,-0.463l0.459,-0.46l0.457,-0.456l0.456,-0.454l0.454,-0.451l0.451,-0.447l0.448,-0.442l0.45,-0.443l0.88,-0.864l0.871,-0.85l0.857,-0.834l0.841,-0.814l0.824,-0.794l0.806,-0.774l0.786,-0.752l0.765,-0.729l0.742,-0.705l0.717,-0.68l0.693,-0.654l0.665,-0.626l0.636,-0.598l0.608,-0.57l1.111,-1.039l0.972,-0.907l0.815,-0.759l0.652,-0.609l1.376,-1.286l1.388,-1.294l1.39,-1.293l1.391,-1.29l1.392,-1.289l1.393,-1.286l1.395,-1.284l1.396,-1.283l1.397,-1.28l1.398,-1.278l1.399,-1.277l1.401,-1.274l1.402,-1.273l1.403,-1.271l1.404,-1.268l1.405,-1.267l1.407,-1.265l1.408,-1.263l1.409,-1.261l1.41,-1.26l1.411,-1.257l1.412,-1.256l1.414,-1.254l1.415,-1.252l1.416,-1.25l1.417,-1.249l1.418,-1.247l1.419,-1.245l1.42,-1.243l1.422,-1.242l1.422,-1.24l1.424,-1.238l1.425,-1.237l1.425,-1.235l1.427,-1.233l1.428,-1.232l1.429,-1.23l1.43,-1.228l1.432,-1.228l1.432,-1.225l1.433,-1.223l1.434,-1.223l1.436,-1.22l1.436,-1.22l1.437,-1.217l1.439,-1.216l1.439,-1.215l1.441,-1.213l1.441,-1.212l1.443,-1.21l1.443,-1.209l1.445,-1.208l1.445,-1.206l1.447,-1.204l1.447,-1.204l1.448,-1.202l1.45,-1.2l1.45,-1.199l1.451,-1.198l1.452,-1.197l1.454,-1.195l1.454,-1.194l1.454,-1.193l1.456,-1.192l1.457,-1.19l1.458,-1.189l1.459,-1.188l1.459,-1.187l1.461,-1.185l1.461,-1.184l1.462,-1.183l1.464,-1.182l1.464,-1.181l1.464,-1.18l1.466,-1.178l1.467,-1.178l1.468,-1.177l1.468,-1.175l1.469,-1.174l1.47,-1.173l1.471,-1.173l1.472,-1.171l1.472,-1.17l1.474,-1.169l1.474,-1.169l1.475,-1.167l1.476,-1.166l1.476,-1.166l1.478,-1.164l1.478,-1.164l1.479,-1.162l1.48,-1.162l1.48,-1.161l1.481,-1.16l1.482,-1.16l1.483,-1.158l1.484,-1.158l1.484,-1.157l1.485,-1.156l1.486,-1.155l1.487,-1.154l1.487,-1.154l1.488,-1.153l1.489,-1.152l1.489,-1.152l1.491,-1.151l1.49,-1.15l1.492,-1.15l1.492,-1.149l1.493,-1.148l1.494,-1.148l1.494,-1.147l1.495,-1.146l1.496,-1.146l1.496,-1.145l1.497,-1.145l1.498,-1.144l1.498,-1.144l1.499,-1.143l1.499,-1.143l1.501,-1.142l1.502,-1.142l3.002,-2.281l3.006,-2.28l3.01,-2.281l0.681,-0.514l1.061,-0.8l1.416,-1.066l1.748,-1.312l2.052,-1.539l1.136,-0.85l1.202,-0.898l1.266,-0.945l1.327,-0.99l1.386,-1.032l1.44,-1.071l1.492,-1.108l1.542,-1.143l1.587,-1.176l1.629,-1.205l1.669,-1.232l1.706,-1.257l1.739,-1.279l1.769,-1.299l1.797,-1.317l1.82,-1.331l1.842,-1.344l1.86,-1.355l1.875,-1.362l1.885,-1.365l0.948,-0.686l0.949,-0.686l0.95,-0.685l0.952,-0.685l0.952,-0.685l0.952,-0.683l0.952,-0.683l0.952,-0.681l0.951,-0.68l0.95,-0.677l0.949,-0.676l0.946,-0.672l0.945,-0.67l0.941,-0.666l0.938,-0.663l0.936,-0.66l0.931,-0.655l0.927,-0.651l0.923,-0.646l0.918,-0.641l0.913,-0.636l0.907,-0.63l0.902,-0.625l0.895,-0.618l0.888,-0.612l0.882,-0.606l0.875,-0.598l0.867,-0.591l0.859,-0.584l0.851,-0.576l0.842,-0.568l0.834,-0.56l0.824,-0.551l0.815,-0.543l0.806,-0.533l0.795,-0.525l0.786,-0.514l0.774,-0.505l0.765,-0.495l0.754,-0.486l0.742,-0.474l0.732,-0.464l0.715,-0.45l0.363,-0.227l0.353,-0.22l0.35,-0.217l0.347,-0.214l0.346,-0.213l0.343,-0.209l0.339,-0.206l0.337,-0.203l0.334,-0.201l0.333,-0.199l0.329,-0.195l0.326,-0.192l0.324,-0.19l0.322,-0.187l0.32,-0.185l0.317,-0.181l0.316,-0.18l0.313,-0.176l0.311,-0.173l0.311,-0.172l0.308,-0.168l0.308,-0.166l0.306,-0.164l0.306,-0.162l0.305,-0.158l0.306,-0.158l0.306,-0.154l0.306,-0.153l0.309,-0.151l0.312,-0.15l0.313,-0.147l0.316,-0.146l0.323,-0.145l0.327,-0.143l0.334,-0.143l0.345,-0.142l0.354,-0.141l0.366,-0.141l0.381,-0.139l0.402,-0.14l0.421,-0.139l0.402,-0.124l0.277,-0.081l0.243,-0.067l0.252,-0.068l0.265,-0.066l0.272,-0.065l0.287,-0.064l0.301,-0.063l0.319,-0.061l0.328,-0.057l0.352,-0.054l0.368,-0.05l0.388,-0.044l0.421,-0.039l0.44,-0.03l0.467,-0.019l0.265,-0.004l3.836,0.409Zm-300.208,278.159l0.021,-0.079l0.03,-0.118l0.031,-0.134l0.033,-0.149l0.032,-0.163l0.031,-0.179l0.03,-0.195l0.029,-0.214l0.026,-0.23l0.018,-0.201l0.012,-0.181l0.008,-0.135l0.007,-0.139l0.005,-0.147l0.003,-0.151l0,-0.047l-0.316,2.462Zm296.838,-246.572l0.177,-0.002l0.376,-0.016l0.346,-0.023l0.324,-0.03l0.287,-0.033l0.265,-0.036l0.245,-0.038l0.22,-0.038l0.207,-0.039l0.186,-0.039l0.168,-0.038l0.152,-0.036l0.14,-0.035l0.126,-0.034l0.009,-0.002l-3.228,0.439Z" style="fill:#ff5c49;"/><path d="M247.456,104.414l0.44,0.011l0.433,0.018l0.429,0.025l0.423,0.031l0.416,0.036l0.41,0.042l0.405,0.047l0.402,0.053l0.395,0.056l0.389,0.061l0.388,0.065l0.381,0.07l0.378,0.072l0.374,0.077l0.37,0.08l0.367,0.083l0.363,0.086l0.361,0.09l0.358,0.092l0.353,0.095l0.352,0.098l0.35,0.1l0.348,0.104l0.345,0.105l0.342,0.108l0.34,0.11l0.34,0.112l0.338,0.115l0.336,0.117l0.333,0.119l0.333,0.121l0.332,0.123l0.33,0.125l0.329,0.127l0.328,0.129l0.327,0.131l0.326,0.132l0.326,0.135l0.325,0.136l0.323,0.138l0.323,0.14l0.322,0.141l0.323,0.144l0.321,0.145l0.321,0.146l0.32,0.148l0.32,0.15l0.32,0.151l0.32,0.153l0.32,0.155l0.318,0.156l0.318,0.157l0.319,0.159l0.319,0.161l0.318,0.162l0.318,0.163l0.318,0.165l0.318,0.166l0.318,0.168l0.318,0.169l0.317,0.17l0.318,0.172l0.318,0.174l0.317,0.173l0.318,0.177l0.318,0.177l0.317,0.178l0.319,0.179l0.318,0.181l0.317,0.182l0.318,0.183l0.318,0.185l0.319,0.185l0.318,0.187l0.318,0.188l0.318,0.189l0.319,0.19l0.319,0.191l0.317,0.192l0.319,0.194l0.319,0.194l0.319,0.196l0.326,0.201l0.629,0.39l0.638,0.4l0.638,0.404l0.638,0.406l0.638,0.411l0.638,0.413l0.638,0.417l0.637,0.42l0.637,0.422l0.637,0.426l0.637,0.428l0.636,0.43l0.635,0.433l0.634,0.434l0.634,0.437l0.633,0.439l0.632,0.44l0.63,0.442l0.63,0.443l0.628,0.445l0.627,0.445l0.624,0.447l0.624,0.447l0.622,0.448l0.619,0.449l0.617,0.448l0.616,0.449l0.613,0.449l0.61,0.449l0.608,0.448l0.606,0.448l0.602,0.447l0.6,0.447l0.596,0.446l0.594,0.444l0.589,0.444l0.587,0.442l0.582,0.44l0.579,0.438l0.578,0.439l1.134,0.864l1.121,0.857l1.101,0.846l1.082,0.833l1.061,0.82l1.038,0.804l1.016,0.788l0.99,0.77l0.964,0.75l1.845,1.437l0.877,0.682l0.845,0.657l0.812,0.63l0.776,0.6l0.739,0.57l0.698,0.535l0.663,0.505l0.306,0.233l0.3,0.226l0.288,0.216l0.274,0.206l0.262,0.194l0.248,0.183l0.233,0.171l0.217,0.158l0.201,0.144l0.203,0.145l2.704,1.917l2.74,1.945l2.757,1.961l2.773,1.974l1.395,0.994l1.396,0.996l1.401,1l1.404,1.004l1.408,1.008l1.412,1.011l1.414,1.015l1.418,1.018l1.421,1.022l1.424,1.025l1.427,1.029l1.43,1.032l1.432,1.036l1.436,1.039l1.437,1.042l1.44,1.046l1.443,1.049l1.444,1.053l1.447,1.056l1.449,1.06l1.451,1.062l1.452,1.066l1.454,1.069l1.456,1.073l1.457,1.076l1.459,1.079l1.46,1.082l1.461,1.085l1.463,1.089l1.463,1.091l1.464,1.095l1.465,1.098l1.466,1.101l1.467,1.105l1.467,1.107l1.467,1.11l1.468,1.113l1.468,1.117l1.468,1.119l1.468,1.123l1.467,1.125l1.468,1.128l1.468,1.132l1.467,1.134l1.466,1.137l1.466,1.14l1.466,1.143l1.464,1.146l1.464,1.149l1.462,1.151l1.462,1.155l1.46,1.157l1.457,1.158l0.731,0.583l0.729,0.582l0.728,0.582l0.728,0.583l0.728,0.584l0.727,0.585l0.726,0.585l0.727,0.586l0.726,0.586l0.725,0.587l0.725,0.588l0.724,0.589l0.724,0.589l0.724,0.59l0.722,0.591l0.723,0.591l0.722,0.592l0.721,0.592l0.721,0.594l0.72,0.594l0.719,0.594l0.719,0.596l0.718,0.596l0.718,0.596l0.717,0.598l0.717,0.597l0.715,0.599l0.715,0.599l0.715,0.6l0.713,0.601l0.713,0.601l0.712,0.601l0.712,0.603l0.71,0.603l0.71,0.604l0.709,0.604l0.709,0.605l0.708,0.606l0.706,0.606l0.706,0.607l0.705,0.607l0.704,0.608l0.704,0.609l0.702,0.61l0.702,0.61l0.7,0.61l0.7,0.611l0.699,0.613l0.698,0.612l0.697,0.613l0.696,0.614l0.695,0.614l0.694,0.615l0.693,0.616l0.692,0.616l0.691,0.617l0.69,0.617l0.689,0.618l0.688,0.619l0.687,0.619l0.686,0.62l0.684,0.62l0.684,0.621l0.682,0.622l0.681,0.622l0.681,0.623l0.679,0.624l0.677,0.624l0.677,0.624l0.675,0.626l0.675,0.625l0.673,0.627l0.671,0.627l0.671,0.627l0.669,0.628l0.668,0.629l0.667,0.63l0.665,0.629l0.664,0.631l0.663,0.631l0.662,0.632l0.66,0.632l0.658,0.633l0.658,0.633l0.656,0.634l0.654,0.635l0.653,0.635l0.652,0.635l0.651,0.637l0.649,0.637l0.647,0.637l0.646,0.638l0.645,0.638l0.643,0.64l0.642,0.64l0.639,0.639l0.639,0.641l0.637,0.642l0.635,0.642l0.634,0.642l0.632,0.643l0.631,0.644l0.629,0.644l0.628,0.645l0.626,0.645l0.624,0.646l0.622,0.647l0.621,0.647l0.619,0.647l0.618,0.648l0.616,0.649l0.614,0.649l0.612,0.65l0.611,0.65l0.609,0.651l0.607,0.652l0.606,0.652l0.603,0.653l0.602,0.653l0.6,0.653l0.598,0.655l0.596,0.654l0.595,0.656l0.593,0.656l0.59,0.656l0.589,0.657l0.587,0.657l0.585,0.659l0.583,0.659l0.581,0.659l0.579,0.659l0.578,0.661l0.575,0.661l0.564,0.65l0.442,0.51l0.433,0.498l0.432,0.496l0.431,0.493l0.432,0.492l0.431,0.49l0.432,0.488l0.43,0.487l0.431,0.484l0.43,0.483l0.43,0.48l0.43,0.48l0.43,0.478l0.43,0.476l0.429,0.474l0.43,0.473l0.429,0.472l0.429,0.469l0.429,0.469l0.429,0.467l0.428,0.465l0.429,0.464l0.429,0.463l0.428,0.462l0.428,0.46l0.429,0.459l0.429,0.458l0.428,0.456l0.428,0.455l0.429,0.454l0.429,0.454l0.428,0.451l0.428,0.45l0.429,0.45l0.428,0.449l0.426,0.445l0.861,0.896l0.857,0.888l0.859,0.886l0.859,0.882l0.86,0.88l0.86,0.877l0.862,0.874l0.862,0.872l0.863,0.87l0.864,0.868l0.866,0.867l0.867,0.865l0.867,0.863l0.87,0.864l0.871,0.862l0.872,0.862l0.874,0.862l0.875,0.861l0.877,0.861l0.879,0.862l0.881,0.863l0.882,0.862l1.773,1.732l1.781,1.735l3.588,3.495l1.808,1.763l1.817,1.773l0.915,0.894l0.916,0.897l0.919,0.9l0.922,0.904l0.924,0.909l0.928,0.913l0.93,0.918l0.934,0.923l0.936,0.928l0.94,0.933l0.943,0.94l0.972,0.97l0.179,0.181l0.202,0.209l0.198,0.209l0.192,0.206l0.191,0.21l0.184,0.206l0.177,0.202l0.178,0.207l0.174,0.206l0.168,0.203l0.163,0.2l0.159,0.198l0.16,0.204l0.154,0.198l0.151,0.197l0.148,0.199l0.142,0.192l0.143,0.195l0.139,0.194l0.136,0.191l0.133,0.191l0.13,0.188l0.126,0.186l0.139,0.206l0.23,0.35l0.234,0.363l0.226,0.358l0.217,0.352l0.21,0.346l0.202,0.341l0.196,0.335l0.189,0.329l0.183,0.323l0.177,0.318l0.172,0.311l0.167,0.304l0.161,0.299l0.162,0.302l0.294,0.554l0.285,0.541l0.268,0.512l0.254,0.484l0.245,0.466l0.112,0.211l0.11,0.207l0.108,0.2l0.104,0.192l0.1,0.182l0.097,0.175l0.093,0.166l0.088,0.156l0.085,0.146l0.08,0.138l0.075,0.126l0.071,0.116l0.067,0.108l0.06,0.096l0.055,0.084l0.062,0.093l0.01,0.015l0.021,0.031l0.016,0.024l0.018,0.025l0.016,0.023l0.004,0.005l0.187,0.193l0.312,0.34l0.275,0.317l0.297,0.356l0.367,0.471l0.345,0.475l0.281,0.413l0.231,0.356l0.158,0.255l0.955,1.164l1.661,3.481l0.781,3.778l-0.147,3.854l-1.064,3.707l-1.921,3.345l-2.666,2.788l-3.255,2.069l-3.656,1.23l-3.844,0.32l-0.675,-0.026l-1.251,-0.15l-1.163,-0.227l-1.124,-0.304l-1.041,-0.362l-0.934,-0.394l-0.857,-0.423l-0.774,-0.438l-0.671,-0.426l-0.627,-0.44l-0.559,-0.432l-0.478,-0.399l-0.431,-0.387l-0.382,-0.367l-0.355,-0.362l-0.316,-0.341l-0.281,-0.319l-0.299,-0.357l-0.368,-0.466l-0.345,-0.471l-0.289,-0.418l-0.241,-0.369l-0.106,-0.171l-0.047,-0.055l-0.175,-0.205l-0.168,-0.203l-0.163,-0.2l-0.163,-0.203l-0.157,-0.198l-0.154,-0.198l-0.154,-0.202l-0.147,-0.194l-0.144,-0.195l-0.143,-0.196l-0.141,-0.195l-0.135,-0.19l-0.133,-0.19l-0.134,-0.193l-0.128,-0.187l-0.138,-0.205l-0.232,-0.35l-0.236,-0.366l-0.227,-0.359l-0.218,-0.352l-0.212,-0.349l-0.205,-0.344l-0.197,-0.336l-0.191,-0.332l-0.185,-0.325l-0.179,-0.319l-0.173,-0.313l-0.168,-0.307l-0.164,-0.301l-0.158,-0.295l-0.155,-0.289l-0.152,-0.287l-0.281,-0.534l-0.271,-0.517l-0.256,-0.489l-0.24,-0.457l-0.233,-0.44l-0.103,-0.191l-0.105,-0.193l-0.1,-0.185l-0.097,-0.174l-0.092,-0.166l-0.089,-0.156l-0.085,-0.148l-0.079,-0.136l-0.075,-0.126l-0.071,-0.117l-0.065,-0.105l-0.059,-0.094l-0.054,-0.084l-0.06,-0.091l-0.009,-0.012l-0.02,-0.03l-0.019,-0.028l-0.013,-0.018l-0.737,-0.736l-0.912,-0.909l-0.912,-0.905l-0.909,-0.902l-0.909,-0.898l-0.907,-0.895l-0.906,-0.892l-0.905,-0.889l-0.903,-0.887l-0.904,-0.885l-0.901,-0.882l-0.9,-0.879l-1.802,-1.759l-1.797,-1.752l-3.59,-3.496l-1.793,-1.749l-1.791,-1.748l-0.898,-0.878l-0.896,-0.878l-0.897,-0.879l-0.897,-0.881l-0.897,-0.883l-0.898,-0.885l-0.898,-0.887l-0.898,-0.889l-0.898,-0.892l-0.9,-0.896l-0.899,-0.898l-0.9,-0.901l-0.902,-0.905l-0.901,-0.909l-0.902,-0.912l-0.903,-0.917l-0.905,-0.921l-0.904,-0.926l-0.906,-0.93l-0.907,-0.935l-0.907,-0.941l-0.906,-0.942l-0.458,-0.478l-0.454,-0.476l-0.455,-0.477l-0.456,-0.48l-0.456,-0.481l-0.456,-0.482l-0.456,-0.483l-0.457,-0.486l-0.457,-0.487l-0.457,-0.488l-0.458,-0.49l-0.458,-0.492l-0.458,-0.493l-0.458,-0.495l-0.459,-0.497l-0.46,-0.499l-0.459,-0.5l-0.46,-0.502l-0.46,-0.504l-0.46,-0.506l-0.461,-0.508l-0.461,-0.509l-0.462,-0.512l-0.462,-0.513l-0.462,-0.515l-0.463,-0.518l-0.463,-0.519l-0.464,-0.522l-0.463,-0.524l-0.464,-0.525l-0.465,-0.527l-0.465,-0.53l-0.465,-0.533l-0.466,-0.534l-0.466,-0.536l-0.457,-0.527l-0.539,-0.622l-0.53,-0.609l-0.533,-0.61l-0.536,-0.61l-0.537,-0.609l-0.539,-0.609l-0.541,-0.609l-0.544,-0.609l-0.546,-0.61l-0.548,-0.609l-0.55,-0.608l-0.552,-0.609l-0.554,-0.608l-0.556,-0.608l-0.559,-0.609l-0.56,-0.608l-0.562,-0.608l-0.564,-0.607l-0.566,-0.607l-0.568,-0.608l-0.571,-0.607l-0.572,-0.607l-0.574,-0.607l-0.576,-0.607l-0.577,-0.606l-0.58,-0.606l-0.582,-0.606l-0.583,-0.606l-0.586,-0.606l-0.587,-0.605l-0.589,-0.605l-0.59,-0.606l-0.593,-0.604l-0.594,-0.605l-0.596,-0.604l-0.598,-0.604l-0.6,-0.604l-0.601,-0.603l-0.604,-0.604l-0.604,-0.603l-0.607,-0.603l-0.608,-0.602l-0.61,-0.603l-0.612,-0.602l-0.613,-0.602l-0.615,-0.601l-0.616,-0.601l-0.618,-0.601l-0.62,-0.601l-0.621,-0.601l-0.623,-0.599l-0.625,-0.601l-0.626,-0.599l-0.627,-0.599l-0.629,-0.599l-0.631,-0.599l-0.632,-0.598l-0.633,-0.598l-0.635,-0.598l-0.637,-0.597l-0.637,-0.597l-0.64,-0.597l-0.64,-0.596l-0.643,-0.596l-0.643,-0.596l-0.645,-0.595l-0.646,-0.595l-0.648,-0.595l-0.649,-0.594l-0.65,-0.594l-0.652,-0.594l-0.652,-0.593l-0.655,-0.593l-0.655,-0.592l-0.657,-0.592l-0.658,-0.592l-0.659,-0.591l-0.661,-0.591l-0.661,-0.591l-0.663,-0.59l-0.664,-0.59l-0.665,-0.589l-0.667,-0.589l-0.667,-0.589l-0.669,-0.588l-0.67,-0.588l-0.67,-0.587l-0.672,-0.587l-0.673,-0.587l-0.675,-0.586l-0.675,-0.586l-0.676,-0.585l-0.677,-0.585l-0.679,-0.584l-0.679,-0.584l-0.68,-0.584l-0.681,-0.583l-0.682,-0.583l-0.684,-0.582l-0.684,-0.582l-0.685,-0.581l-0.686,-0.581l-0.687,-0.58l-0.688,-0.58l-0.688,-0.58l-0.69,-0.579l-0.69,-0.578l-0.691,-0.578l-0.692,-0.578l-0.693,-0.577l-0.694,-0.576l-0.694,-0.577l-0.695,-0.575l-0.697,-0.576l-0.696,-0.574l-0.697,-0.574l-0.699,-0.574l-0.699,-0.573l-0.699,-0.573l-0.701,-0.572l-0.701,-0.572l-0.701,-0.571l-0.702,-0.57l-0.703,-0.57l-0.704,-0.57l-0.704,-0.569l-0.705,-0.568l-0.705,-0.568l-0.706,-0.568l-0.706,-0.567l-0.707,-0.566l-0.707,-0.566l-0.709,-0.565l-0.706,-0.563l-1.421,-1.13l-1.42,-1.125l-1.422,-1.123l-1.424,-1.122l-1.426,-1.118l-1.427,-1.117l-1.428,-1.114l-1.43,-1.112l-1.43,-1.109l-1.432,-1.107l-1.432,-1.104l-1.434,-1.102l-1.435,-1.1l-1.435,-1.097l-1.435,-1.095l-1.436,-1.092l-1.436,-1.09l-1.437,-1.087l-1.437,-1.084l-1.437,-1.082l-1.436,-1.079l-1.437,-1.077l-1.436,-1.074l-1.436,-1.071l-1.436,-1.069l-1.435,-1.066l-1.434,-1.063l-1.433,-1.06l-1.433,-1.058l-1.432,-1.054l-1.431,-1.052l-1.429,-1.049l-1.428,-1.046l-1.427,-1.044l-1.426,-1.04l-1.423,-1.038l-1.423,-1.034l-1.42,-1.032l-1.419,-1.029l-1.416,-1.025l-1.415,-1.023l-1.412,-1.02l-1.41,-1.017l-1.408,-1.013l-1.405,-1.01l-1.403,-1.008l-1.4,-1.004l-1.398,-1.001l-1.394,-0.998l-1.392,-0.995l-1.388,-0.992l-1.386,-0.988l-1.38,-0.984l-2.756,-1.962l-2.74,-1.948l-2.725,-1.934l-2.727,-1.934l-0.299,-0.213l-0.322,-0.232l-0.325,-0.236l-0.329,-0.241l-0.332,-0.245l-0.339,-0.252l-0.343,-0.257l-0.349,-0.262l-0.355,-0.268l-0.366,-0.277l-0.735,-0.56l-0.765,-0.588l-0.791,-0.609l-0.815,-0.631l-0.841,-0.652l-0.865,-0.672l-0.888,-0.692l-1.844,-1.435l-0.954,-0.743l-0.974,-0.757l-0.993,-0.771l-1.011,-0.782l-1.028,-0.795l-1.044,-0.804l-1.058,-0.812l-1.071,-0.82l-1.088,-0.829l-0.543,-0.412l-0.549,-0.416l-0.551,-0.416l-0.554,-0.417l-0.556,-0.418l-0.557,-0.418l-0.56,-0.418l-0.561,-0.418l-0.563,-0.418l-0.564,-0.418l-0.566,-0.417l-0.566,-0.416l-0.567,-0.415l-0.568,-0.415l-0.569,-0.413l-0.569,-0.412l-0.569,-0.41l-0.569,-0.408l-0.569,-0.406l-0.568,-0.405l-0.568,-0.402l-0.567,-0.399l-0.567,-0.397l-0.566,-0.394l-0.564,-0.391l-0.562,-0.388l-0.562,-0.385l-0.559,-0.38l-0.557,-0.377l-0.555,-0.374l-0.552,-0.369l-0.55,-0.364l-0.548,-0.361l-0.544,-0.355l-0.54,-0.351l-0.538,-0.345l-0.533,-0.34l-0.529,-0.335l-0.526,-0.329l-0.528,-0.328l-0.252,-0.155l-0.257,-0.158l-0.255,-0.156l-0.255,-0.155l-0.255,-0.153l-0.252,-0.152l-0.25,-0.149l-0.249,-0.148l-0.249,-0.147l-0.246,-0.144l-0.245,-0.143l-0.243,-0.141l-0.242,-0.139l-0.24,-0.138l-0.238,-0.135l-0.236,-0.134l-0.236,-0.132l-0.233,-0.129l-0.23,-0.128l-0.23,-0.126l-0.227,-0.124l-0.225,-0.121l-0.224,-0.12l-0.221,-0.118l-0.218,-0.115l-0.217,-0.114l-0.215,-0.111l-0.212,-0.109l-0.209,-0.107l-0.207,-0.104l-0.205,-0.102l-0.203,-0.1l-0.2,-0.098l-0.196,-0.095l-0.193,-0.093l-0.192,-0.09l-0.188,-0.088l-0.186,-0.086l-0.182,-0.084l-0.18,-0.08l-0.175,-0.078l-0.173,-0.076l-0.169,-0.074l-0.166,-0.07l-0.162,-0.068l-0.158,-0.065l-0.155,-0.064l-0.151,-0.06l-0.147,-0.058l-0.142,-0.055l-0.14,-0.052l-0.133,-0.05l-0.13,-0.047l-0.126,-0.045l-0.12,-0.042l-0.115,-0.039l-0.11,-0.036l-0.106,-0.035l-0.101,-0.031l-0.094,-0.029l-0.089,-0.026l-0.083,-0.024l-0.077,-0.022l-0.072,-0.019l-0.064,-0.017l-0.057,-0.014l-0.052,-0.012l-0.044,-0.01l-0.038,-0.008l-0.029,-0.006l-0.022,-0.004l-0.014,-0.003l-0.004,-0.001l0.012,0.002l0.021,0.003l0.029,0.003l0.038,0.004l0.049,0.004l0.059,0.005l0.069,0.004l0.077,0.003l0.045,0.001l-3.818,-0.497l-3.595,-1.399l-3.155,-2.218l-2.533,-2.909l-1.763,-3.431l-0.891,-3.753l0.033,-3.857l0.956,-3.737l1.821,-3.4l2.583,-2.865l3.193,-2.163l3.618,-1.337l3.833,-0.432l0.309,0.003Zm315.818,264.526l-0.082,-0.073l-0.432,-0.362l-0.513,-0.397l-0.582,-0.407l-0.32,-0.203l1.929,1.442Zm-2.659,-1.877l-0.303,-0.171l-0.811,-0.401l-0.887,-0.374l-0.994,-0.345l-0.154,-0.042l3.149,1.333Zm-3.291,-1.372l-0.781,-0.211l-1.115,-0.217l-1.203,-0.144l-0.627,-0.024l3.726,0.596Z" style="fill:#ff5c49;"/></g></g></svg>