<?xml version="1.0" encoding="UTF-8" standalone="no"?><!DOCTYPE svg PUBLIC "-//W3C//DTD SVG 1.1//EN" "http://www.w3.org/Graphics/SVG/1.1/DTD/svg11.dtd"><svg width="100%" height="100%" viewBox="0 0 800 520" version="1.1" xmlns="http://www.w3.org/2000/svg" xmlns:xlink="http://www.w3.org/1999/xlink" xml:space="preserve" xmlns:serif="http://www.serif.com/" style="fill-rule:evenodd;clip-rule:evenodd;stroke-linejoin:round;stroke-miterlimit:1.41421;"><g><path d="M0,420l240,0l0,100l-189.77,0c-27.723,0 -50.23,-22.507 -50.23,-50.23l0,-49.77Zm520,100l-240,0l0,-100l240,0l0,100Zm280,-100l0,49.77c0,27.723 -22.507,50.23 -50.23,50.23l-189.77,0l0,-100l240,0Zm-560,-40l-240,0l0,-100l240,0l0,100Zm280,0l-240,0l0,-100l240,0l0,100Zm280,0l-240,0l0,-100l240,0l0,100Zm-560,-140l-240,0l0,-100l240,0l0,100Zm280,0l-240,0l0,-100l240,0l0,100Zm280,0l-240,0l0,-100l240,0l0,100Zm-749.77,-240l189.77,0l0,100l-240,0l0,-49.77c0,-27.723 22.507,-50.23 50.23,-50.23Zm469.77,100l-240,0l0,-100l240,0l0,100Zm229.77,-100c27.723,0 50.23,22.507 50.23,50.23l0,49.77l-240,0l0,-100l189.77,0Z" style="fill:#e3ecec;"/><g id="Meh"><path d="M177.545,168.836l0.3,0.002l0.299,0.005l0.299,0.007l0.3,0.009l0.299,0.011l0.298,0.013l0.299,0.016l0.299,0.018l0.297,0.02l0.297,0.022l0.297,0.025l0.297,0.027l0.298,0.029l0.296,0.032l0.295,0.033l0.294,0.036l0.297,0.039l0.295,0.04l0.294,0.043l0.292,0.045l0.293,0.048l0.294,0.05l0.291,0.052l0.291,0.054l0.292,0.057l0.289,0.059l0.29,0.061l0.29,0.064l0.286,0.066l0.288,0.068l0.288,0.071l0.284,0.072l0.284,0.075l0.287,0.078l0.284,0.08l0.281,0.082l0.281,0.084l0.282,0.087l0.28,0.089l0.279,0.091l0.275,0.092l0.279,0.096l0.277,0.099l0.274,0.099l0.274,0.102l0.27,0.104l0.273,0.107l0.272,0.109l0.267,0.11l0.267,0.113l0.266,0.114l0.267,0.118l0.266,0.12l0.259,0.12l0.262,0.123l0.263,0.127l0.256,0.126l0.256,0.128l0.258,0.133l0.255,0.133l0.251,0.134l0.25,0.136l0.252,0.139l0.249,0.141l0.247,0.142l0.245,0.144l0.243,0.145l0.243,0.148l0.242,0.15l0.238,0.15l0.236,0.152l0.238,0.155l0.234,0.156l0.234,0.158l0.229,0.158l0.229,0.16l0.231,0.164l0.225,0.163l0.223,0.164l0.222,0.166l0.221,0.168l0.218,0.168l0.219,0.171l0.219,0.175l0.213,0.172l0.209,0.171l0.21,0.176l0.213,0.18l0.208,0.179l0.203,0.177l0.204,0.18l0.202,0.182l0.202,0.184l0.196,0.181l0.198,0.185l0.195,0.186l0.192,0.185l0.196,0.192l0.188,0.187l0.187,0.188l0.191,0.195l0.184,0.19l0.182,0.191l0.183,0.194l0.178,0.192l0.177,0.194l0.18,0.198l0.177,0.199l0.172,0.195l0.171,0.197l0.169,0.198l0.172,0.202l0.166,0.199l0.165,0.2l0.166,0.204l0.159,0.198l0.161,0.203l0.162,0.206l0.158,0.204l0.156,0.204l0.154,0.204l0.153,0.206l0.153,0.207l0.15,0.206l0.15,0.208l0.144,0.204l0.146,0.209l0.148,0.213l0.141,0.206l0.14,0.206l0.144,0.216l0.14,0.211l0.135,0.208l0.134,0.208l0.136,0.213l0.135,0.214l0.13,0.209l0.133,0.215l0.131,0.216l0.127,0.211l0.125,0.211l0.128,0.217l0.126,0.217l0.119,0.208l0.121,0.213l0.126,0.224l0.119,0.214l0.115,0.21l0.119,0.219l0.118,0.221l0.111,0.211l0.114,0.216l0.115,0.221l0.111,0.217l0.11,0.218l0.109,0.218l0.004,0.008l0.118,-0.163l0.255,-0.35l0.257,-0.349l0.256,-0.345l0.256,-0.34l0.258,-0.34l0.258,-0.338l0.258,-0.334l0.26,-0.332l0.262,-0.331l0.26,-0.326l0.262,-0.324l0.263,-0.324l0.263,-0.318l0.264,-0.318l0.265,-0.314l0.266,-0.312l0.268,-0.312l0.268,-0.307l0.268,-0.305l0.269,-0.301l0.271,-0.301l0.271,-0.298l0.273,-0.296l0.275,-0.294l0.272,-0.288l0.275,-0.287l0.277,-0.287l0.279,-0.284l0.278,-0.28l0.281,-0.279l0.28,-0.276l0.28,-0.271l0.285,-0.272l0.286,-0.27l0.284,-0.264l0.286,-0.264l0.289,-0.261l0.289,-0.259l0.291,-0.256l0.293,-0.254l0.294,-0.251l0.294,-0.248l0.297,-0.246l0.298,-0.244l0.298,-0.24l0.3,-0.238l0.303,-0.236l0.304,-0.233l0.304,-0.23l0.308,-0.229l0.309,-0.225l0.31,-0.222l0.311,-0.22l0.313,-0.216l0.316,-0.215l0.318,-0.211l0.319,-0.209l0.318,-0.205l0.323,-0.203l0.326,-0.201l0.325,-0.196l0.328,-0.194l0.331,-0.192l0.331,-0.187l0.334,-0.185l0.337,-0.182l0.336,-0.178l0.341,-0.176l0.34,-0.171l0.343,-0.168l0.348,-0.167l0.347,-0.161l0.35,-0.158l0.353,-0.156l0.353,-0.15l0.356,-0.148l0.357,-0.143l0.361,-0.14l0.363,-0.137l0.362,-0.131l0.369,-0.129l0.367,-0.124l0.37,-0.12l0.373,-0.116l0.373,-0.112l0.377,-0.107l0.378,-0.103l0.378,-0.099l0.383,-0.094l0.384,-0.09l0.384,-0.084l0.386,-0.08l0.389,-0.076l0.39,-0.07l0.39,-0.066l0.392,-0.06l0.395,-0.056l0.397,-0.05l0.396,-0.046l0.396,-0.039l0.399,-0.035l0.4,-0.03l0.399,-0.024l0.401,-0.019l0.403,-0.013l0.403,-0.008l0.401,-0.002l0.403,0.003l0.403,0.009l0.404,0.015l0.403,0.02l0.402,0.026l0.404,0.031l0.403,0.037l0.4,0.043l0.4,0.048l0.403,0.054l0.4,0.06l0.397,0.065l0.397,0.071l0.398,0.076l0.396,0.082l0.392,0.087l0.392,0.093l0.392,0.098l0.387,0.104l0.387,0.108l0.386,0.115l0.38,0.118l0.38,0.124l0.379,0.13l0.378,0.135l0.372,0.139l0.368,0.143l0.371,0.15l0.365,0.153l0.36,0.157l0.36,0.163l0.358,0.167l0.354,0.171l0.352,0.176l0.348,0.18l0.345,0.184l0.339,0.186l0.338,0.192l0.337,0.196l0.332,0.199l0.328,0.203l0.324,0.205l0.324,0.211l0.318,0.212l0.314,0.216l0.314,0.221l0.307,0.222l0.306,0.226l0.303,0.23l0.301,0.233l0.293,0.233l0.292,0.238l0.289,0.24l0.286,0.243l0.282,0.245l0.279,0.248l0.276,0.251l0.272,0.252l0.272,0.258l0.265,0.256l0.262,0.259l0.259,0.261l0.256,0.263l0.256,0.268l0.251,0.269l0.249,0.271l0.244,0.271l0.24,0.272l0.243,0.28l0.236,0.279l0.231,0.277l0.231,0.282l0.228,0.283l0.225,0.285l0.225,0.29l0.219,0.288l0.217,0.29l0.214,0.291l0.21,0.293l0.211,0.297l0.207,0.296l0.203,0.297l0.203,0.301l0.201,0.303l0.197,0.304l0.193,0.302l0.194,0.307l0.19,0.309l0.186,0.306l0.188,0.314l0.184,0.312l0.179,0.31l0.181,0.318l0.177,0.316l0.174,0.318l0.174,0.321l0.17,0.32l0.168,0.321l0.166,0.323l0.166,0.326l0.163,0.328l0.16,0.326l0.16,0.331l0.157,0.331l0.154,0.33l0.154,0.334l0.151,0.336l0.15,0.336l0.147,0.338l0.146,0.339l0.144,0.341l0.142,0.341l0.142,0.346l0.139,0.344l0.136,0.345l0.135,0.346l0.135,0.352l0.133,0.352l0.13,0.35l0.128,0.351l0.127,0.356l0.126,0.357l0.124,0.359l0.123,0.359l0.12,0.358l0.119,0.362l0.119,0.367l0.116,0.364l0.113,0.363l0.114,0.37l0.111,0.368l0.11,0.37l0.109,0.374l0.107,0.372l0.105,0.374l0.104,0.378l0.102,0.376l0.102,0.38l0.1,0.382l0.097,0.38l0.097,0.384l0.095,0.386l0.094,0.387l0.093,0.388l0.091,0.39l0.089,0.39l0.086,0.384l0.088,0.397l0.085,0.388l0.084,0.389l0.083,0.388l0.082,0.386l0.081,0.388l0.081,0.388l0.079,0.386l0.078,0.385l0.077,0.386l0.077,0.385l0.077,0.392l0.147,0.761l0.145,0.769l0.142,0.767l0.138,0.765l0.135,0.765l0.131,0.764l0.128,0.762l0.126,0.763l0.122,0.761l0.119,0.76l0.116,0.76l0.114,0.76l0.11,0.76l0.108,0.757l0.105,0.759l0.103,0.758l0.1,0.758l0.098,0.758l0.095,0.758l0.093,0.759l0.091,0.758l0.089,0.757l0.087,0.759l0.084,0.76l0.083,0.759l0.081,0.76l0.077,0.744l0.075,0.741l0.074,0.739l0.072,0.739l0.071,0.74l0.07,0.739l0.067,0.736l0.067,0.738l0.064,0.735l0.064,0.734l0.062,0.736l0.061,0.734l0.059,0.733l0.059,0.731l0.057,0.732l0.056,0.731l0.054,0.728l0.054,0.729l0.053,0.731l0.052,0.727l0.05,0.725l0.05,0.726l0.048,0.726l0.048,0.725l0.047,0.724l0.047,0.728l0.089,1.439l0.087,1.442l0.084,1.439l0.082,1.436l0.08,1.433l0.078,1.432l0.076,1.428l0.075,1.424l0.074,1.425l0.146,2.836l0.144,2.828l0.145,2.822l0.073,1.404l0.075,1.403l0.075,1.402l0.078,1.407l0.117,2.124l0.116,2.133l0.115,2.133l0.114,2.136l0.111,2.136l0.109,2.137l0.108,2.139l0.105,2.14l0.103,2.142l0.1,2.143l0.097,2.14l0.048,1.076l0.047,1.073l0.046,1.073l0.045,1.072l0.045,1.075l0.043,1.075l0.043,1.074l0.042,1.075l0.041,1.075l0.04,1.075l0.04,1.077l0.038,1.075l0.037,1.077l0.037,1.077l0.035,1.077l0.035,1.078l0.033,1.077l0.032,1.079l0.031,1.078l0.03,1.08l0.029,1.08l0.028,1.079l0.027,1.079l0.025,1.081l0.025,1.081l0.023,1.082l0.021,1.081l0.021,1.081l0.019,1.082l0.018,1.084l0.017,1.082l0.015,1.084l0.014,1.084l0.013,1.083l0.011,1.085l0.01,1.085l0.008,1.085l0.007,1.086l0.005,1.086l0.004,1.087l0.002,1.087l0.001,1.074l-0.033,1.047l-0.102,1.042l-0.17,1.033l-0.237,1.02l-0.303,1.002l-0.368,0.98l-0.432,0.954l-0.492,0.924l-0.553,0.889l-0.609,0.852l-0.663,0.81l-0.716,0.764l-0.763,0.717l-0.809,0.664l-0.851,0.611l-0.888,0.554l-0.923,0.494l-0.954,0.433l-0.979,0.369l-1.002,0.305l-1.02,0.238l-1.032,0.172l-1.042,0.103l-1.047,0.035l-1.046,-0.033l-1.042,-0.102l-1.033,-0.17l-1.02,-0.237l-1.002,-0.303l-0.981,-0.368l-0.954,-0.431l-0.923,-0.493l-0.89,-0.553l-0.851,-0.609l-0.81,-0.663l-0.765,-0.715l-0.716,-0.764l-0.665,-0.809l-0.611,-0.851l-0.553,-0.888l-0.495,-0.923l-0.432,-0.954l-0.37,-0.979l-0.305,-1.002l-0.238,-1.019l-0.171,-1.033l-0.104,-1.042l-0.035,-1.047l-0.001,-1.054l-0.002,-1.042l-0.004,-1.04l-0.005,-1.042l-0.006,-1.043l-0.008,-1.042l-0.01,-1.043l-0.01,-1.042l-0.012,-1.043l-0.014,-1.043l-0.015,-1.043l-0.016,-1.044l-0.017,-1.043l-0.019,-1.044l-0.019,-1.045l-0.021,-1.044l-0.023,-1.045l-0.023,-1.044l-0.025,-1.045l-0.026,-1.045l-0.027,-1.046l-0.028,-1.046l-0.029,-1.045l-0.03,-1.046l-0.031,-1.046l-0.033,-1.047l-0.033,-1.047l-0.034,-1.047l-0.036,-1.047l-0.036,-1.046l-0.038,-1.049l-0.038,-1.048l-0.039,-1.047l-0.04,-1.049l-0.041,-1.048l-0.042,-1.05l-0.042,-1.048l-0.044,-1.048l-0.044,-1.051l-0.045,-1.05l-0.046,-1.049l-0.047,-1.048l-0.095,-2.104l-0.098,-2.102l-0.101,-2.103l-0.104,-2.104l-0.105,-2.105l-0.108,-2.107l-0.11,-2.107l-0.112,-2.108l-0.114,-2.11l-0.115,-2.11l-0.117,-2.119l-0.079,-1.429l-0.077,-1.433l-0.076,-1.431l-0.074,-1.428l-0.146,-2.84l-0.145,-2.831l-0.144,-2.821l-0.073,-1.403l-0.074,-1.401l-0.074,-1.399l-0.076,-1.395l-0.078,-1.392l-0.079,-1.39l-0.081,-1.386l-0.084,-1.384l-0.086,-1.387l-0.044,-0.685l-0.044,-0.688l-0.046,-0.688l-0.046,-0.687l-0.047,-0.687l-0.048,-0.688l-0.048,-0.686l-0.05,-0.682l-0.05,-0.684l-0.052,-0.686l-0.052,-0.683l-0.053,-0.681l-0.055,-0.683l-0.055,-0.681l-0.056,-0.68l-0.058,-0.679l-0.059,-0.68l-0.059,-0.679l-0.061,-0.677l-0.063,-0.679l-0.063,-0.676l-0.065,-0.675l-0.066,-0.677l-0.067,-0.676l-0.069,-0.676l-0.07,-0.672l-0.073,-0.682l-0.074,-0.68l-0.075,-0.674l-0.076,-0.672l-0.079,-0.672l-0.08,-0.667l-0.081,-0.663l-0.084,-0.662l-0.085,-0.659l-0.086,-0.657l-0.089,-0.655l-0.091,-0.653l-0.092,-0.652l-0.095,-0.648l-0.097,-0.647l-0.099,-0.647l-0.101,-0.646l-0.103,-0.643l-0.105,-0.642l-0.108,-0.641l-0.11,-0.641l-0.113,-0.64l-0.116,-0.639l-0.117,-0.638l-0.121,-0.638l-0.125,-0.646l-0.061,-0.312l-0.063,-0.319l-0.064,-0.32l-0.065,-0.319l-0.066,-0.321l-0.066,-0.317l-0.067,-0.319l-0.068,-0.321l-0.068,-0.319l-0.069,-0.319l-0.07,-0.321l-0.069,-0.312l-0.061,-0.268l-0.059,-0.258l-0.059,-0.255l-0.06,-0.253l-0.061,-0.25l-0.061,-0.247l-0.062,-0.245l-0.063,-0.245l-0.062,-0.239l-0.063,-0.237l-0.065,-0.237l-0.064,-0.231l-0.065,-0.232l-0.065,-0.229l-0.065,-0.223l-0.067,-0.224l-0.067,-0.221l-0.066,-0.215l-0.068,-0.219l-0.068,-0.212l-0.067,-0.207l-0.068,-0.207l-0.07,-0.208l-0.068,-0.201l-0.069,-0.199l-0.069,-0.196l-0.069,-0.193l-0.071,-0.193l-0.071,-0.191l-0.069,-0.184l-0.07,-0.182l-0.071,-0.182l-0.071,-0.179l-0.07,-0.176l-0.07,-0.17l-0.071,-0.171l-0.071,-0.167l-0.07,-0.164l-0.071,-0.162l-0.071,-0.158l-0.07,-0.156l-0.07,-0.153l-0.072,-0.153l-0.069,-0.146l-0.07,-0.144l-0.07,-0.144l-0.069,-0.138l-0.068,-0.135l-0.07,-0.135l-0.069,-0.131l-0.068,-0.13l-0.067,-0.123l-0.067,-0.122l-0.067,-0.12l-0.065,-0.114l-0.068,-0.117l-0.065,-0.111l-0.062,-0.104l-0.066,-0.108l-0.063,-0.102l-0.062,-0.099l-0.063,-0.099l-0.061,-0.093l-0.059,-0.089l-0.058,-0.087l-0.06,-0.087l-0.058,-0.083l-0.055,-0.078l-0.057,-0.079l-0.055,-0.075l-0.054,-0.071l-0.053,-0.07l-0.049,-0.063l-0.005,-0.007l-0.01,0.007l-0.075,0.046l-0.078,0.049l-0.083,0.053l-0.083,0.054l-0.085,0.057l-0.088,0.06l-0.09,0.062l-0.093,0.066l-0.095,0.068l-0.097,0.07l-0.097,0.073l-0.102,0.077l-0.103,0.079l-0.104,0.081l-0.108,0.086l-0.11,0.088l-0.111,0.09l-0.112,0.094l-0.116,0.097l-0.116,0.1l-0.118,0.102l-0.12,0.105l-0.121,0.109l-0.124,0.112l-0.125,0.115l-0.129,0.12l-0.127,0.12l-0.129,0.123l-0.134,0.13l-0.133,0.131l-0.134,0.133l-0.137,0.138l-0.136,0.139l-0.138,0.142l-0.141,0.148l-0.144,0.152l-0.142,0.152l-0.144,0.156l-0.145,0.16l-0.147,0.162l-0.149,0.168l-0.149,0.169l-0.151,0.173l-0.15,0.174l-0.153,0.18l-0.154,0.183l-0.155,0.186l-0.157,0.19l-0.156,0.192l-0.158,0.196l-0.16,0.2l-0.159,0.201l-0.161,0.206l-0.162,0.21l-0.162,0.212l-0.164,0.215l-0.165,0.221l-0.165,0.222l-0.165,0.224l-0.167,0.228l-0.169,0.235l-0.169,0.236l-0.102,0.144l-0.101,0.144l-0.099,0.142l-0.101,0.146l-0.1,0.148l-0.101,0.147l-0.099,0.149l-0.1,0.15l-0.1,0.15l-0.099,0.151l-0.098,0.153l-0.099,0.153l-0.1,0.157l-0.098,0.154l-0.097,0.155l-0.1,0.16l-0.097,0.157l-0.096,0.158l-0.099,0.162l-0.098,0.163l-0.096,0.16l-0.095,0.16l-0.097,0.166l-0.097,0.165l-0.094,0.163l-0.096,0.168l-0.096,0.168l-0.094,0.166l-0.095,0.17l-0.096,0.174l-0.094,0.171l-0.093,0.169l-0.093,0.172l-0.094,0.174l-0.093,0.174l-0.094,0.179l-0.093,0.175l-0.092,0.176l-0.092,0.178l-0.091,0.178l-0.093,0.182l-0.091,0.179l-0.09,0.18l-0.092,0.184l-0.089,0.181l-0.085,0.172l-0.186,0.383l-0.179,0.374l-0.176,0.375l-0.176,0.379l-0.175,0.382l-0.174,0.386l-0.173,0.39l-0.172,0.391l-0.17,0.395l-0.169,0.397l-0.168,0.4l-0.166,0.402l-0.166,0.405l-0.165,0.41l-0.163,0.412l-0.163,0.414l-0.16,0.414l-0.16,0.419l-0.158,0.422l-0.157,0.422l-0.156,0.427l-0.155,0.428l-0.154,0.431l-0.153,0.434l-0.151,0.434l-0.15,0.437l-0.15,0.44l-0.148,0.441l-0.146,0.443l-0.146,0.445l-0.144,0.446l-0.144,0.452l-0.142,0.45l-0.141,0.452l-0.14,0.455l-0.139,0.456l-0.138,0.457l-0.137,0.46l-0.136,0.461l-0.134,0.462l-0.134,0.464l-0.132,0.466l-0.132,0.466l-0.13,0.467l-0.13,0.471l-0.128,0.471l-0.128,0.47l-0.126,0.474l-0.126,0.473l-0.124,0.475l-0.124,0.476l-0.123,0.479l-0.122,0.477l-0.121,0.478l-0.12,0.48l-0.119,0.48l-0.119,0.482l-0.117,0.482l-0.117,0.482l-0.116,0.485l-0.116,0.484l-0.114,0.484l-0.113,0.484l-0.113,0.484l-0.112,0.486l-0.112,0.489l-0.11,0.481l-0.221,0.978l-0.217,0.975l-0.215,0.977l-0.212,0.976l-0.21,0.975l-0.209,0.976l-0.206,0.974l-0.205,0.974l-0.204,0.974l-0.202,0.97l-0.2,0.968l-0.4,1.937l-0.186,0.899l-0.012,0.549l-0.019,0.807l-0.019,0.804l-0.041,1.59l-0.042,1.581l-0.041,1.567l-0.04,1.556l-0.019,0.767l-0.018,0.767l-0.017,0.765l-0.016,0.76l-0.014,0.756l-0.013,0.751l-0.012,0.749l-0.009,0.746l-0.008,0.742l-0.006,0.736l-0.003,0.734l-0.002,0.761l-0.001,0.542l-0.004,0.586l-0.006,0.594l-0.009,0.6l-0.011,0.611l-0.013,0.618l-0.016,0.62l-0.019,0.624l-0.021,0.626l-0.023,0.625l-0.027,0.623l-0.028,0.621l-0.032,0.622l-0.034,0.6l-0.019,0.316l-0.02,0.304l-0.02,0.302l-0.021,0.306l-0.022,0.295l-0.023,0.3l-0.024,0.298l-0.026,0.297l-0.026,0.297l-0.028,0.297l-0.03,0.297l-0.031,0.293l-0.034,0.306l-0.036,0.303l-0.038,0.302l-0.042,0.313l-0.046,0.321l-0.051,0.332l-0.057,0.345l-0.065,0.364l-0.075,0.388l-0.087,0.412l-0.107,0.462l-0.118,0.457l-0.092,0.327l-0.091,0.306l-0.104,0.329l-0.122,0.362l-0.145,0.397l-0.171,0.437l-0.207,0.486l-0.252,0.545l-0.316,0.616l-0.397,0.698l-0.504,0.788l-0.652,0.894l-0.831,0.978l-0.488,0.487l-0.646,0.608l-0.678,0.571l-0.016,0.013l-0.817,0.609l-0.854,0.556l-0.016,0.01l-0.679,0.389l-0.697,0.355l-0.713,0.321l-0.016,0.007l-0.849,0.329l-0.867,0.28l-0.881,0.231l-0.016,0.004l-0.719,0.149l-0.725,0.116l-0.729,0.083l-0.008,0l-0.75,0.05l-0.751,0.015l-0.009,0l-0.719,-0.019l-0.718,-0.052l-0.008,0l-0.71,-0.083l-0.706,-0.115l-0.009,-0.002l-0.688,-0.143l-0.68,-0.173l-0.673,-0.203l-0.017,-0.006l-0.794,-0.282l-0.778,-0.324l-0.761,-0.364l-0.016,-0.009l-0.634,-0.342l-0.618,-0.371l-0.6,-0.399l-0.017,-0.012l-0.705,-0.519l-0.674,-0.557l-0.407,-0.356l-0.559,-0.555l-0.322,-0.337l-0.307,-0.337l-0.291,-0.337l-0.284,-0.344l-0.265,-0.337l-0.242,-0.322l-0.245,-0.34l-0.224,-0.326l-0.207,-0.314l-0.211,-0.334l-0.191,-0.317l-0.175,-0.303l-0.166,-0.298l-0.165,-0.307l-0.156,-0.304l-0.142,-0.289l-0.141,-0.297l-0.127,-0.279l-0.122,-0.278l-0.121,-0.286l-0.109,-0.27l-0.105,-0.267l-0.099,-0.263l-0.095,-0.261l-0.09,-0.258l-0.085,-0.254l-0.081,-0.252l-0.079,-0.25l-0.07,-0.236l-0.071,-0.243l-0.067,-0.242l-0.062,-0.229l-0.061,-0.237l-0.056,-0.225l-0.056,-0.233l-0.05,-0.221l-0.049,-0.219l-0.049,-0.228l-0.05,-0.245l-0.077,-0.398l-0.075,-0.418l-0.069,-0.418l-0.063,-0.415l-0.055,-0.396l-0.051,-0.399l-0.046,-0.4l-0.041,-0.389l-0.036,-0.383l-0.033,-0.382l-0.029,-0.38l-0.025,-0.38l-0.022,-0.37l-0.019,-0.37l-0.016,-0.374l-0.013,-0.365l-0.011,-0.366l-0.008,-0.366l-0.006,-0.362l-0.003,-0.363l-0.001,-0.359l0.001,-0.356l0.003,-0.36l0.005,-0.358l0.006,-0.354l0.009,-0.356l0.01,-0.352l0.012,-0.353l0.013,-0.355l0.015,-0.351l0.016,-0.349l0.018,-0.353l0.019,-0.35l0.021,-0.348l0.021,-0.344l0.023,-0.346l0.024,-0.35l0.026,-0.347l0.026,-0.341l0.027,-0.341l0.029,-0.346l0.029,-0.339l0.03,-0.339l0.031,-0.34l0.032,-0.341l0.034,-0.337l0.033,-0.33l0.035,-0.345l0.07,-0.654l0.073,-0.655l0.076,-0.65l0.078,-0.645l0.08,-0.635l0.081,-0.624l0.082,-0.618l0.084,-0.61l0.084,-0.597l0.085,-0.585l0.085,-0.575l0.085,-0.564l0.086,-0.55l0.084,-0.536l0.084,-0.521l0.083,-0.506l0.082,-0.493l0.081,-0.474l0.079,-0.457l0.077,-0.443l0.076,-0.424l0.073,-0.402l0.07,-0.385l0.069,-0.367l0.065,-0.343l0.063,-0.325l0.06,-0.309l0.057,-0.289l0.055,-0.269l0.048,-0.23l0.195,-0.933l0.191,-0.917l0.006,-0.406l0.01,-0.748l0.007,-0.746l0.006,-0.743l0.004,-0.739l0.001,-0.756l0.001,-1.182l0.001,-1.232l0.002,-1.259l0.001,-1.286l-0.001,-1.316l-0.002,-0.66l-0.002,-0.669l-0.004,-0.676l-0.004,-0.681l-0.006,-0.685l-0.007,-0.691l-0.008,-0.694l-0.009,-0.698l-0.012,-0.703l-0.013,-0.706l-0.015,-0.71l-0.016,-0.712l-0.019,-0.714l-0.021,-0.718l-0.023,-0.72l-0.025,-0.723l-0.028,-0.723l-0.03,-0.723l-0.033,-0.727l-0.036,-0.732l-0.019,-0.355l-0.02,-0.366l-0.02,-0.364l-0.021,-0.364l-0.022,-0.36l-0.022,-0.363l-0.024,-0.366l-0.024,-0.361l-0.025,-0.362l-0.025,-0.362l-0.027,-0.362l-0.027,-0.362l-0.028,-0.362l-0.029,-0.36l-0.03,-0.358l-0.031,-0.36l-0.032,-0.36l-0.032,-0.36l-0.033,-0.357l-0.034,-0.355l-0.036,-0.357l-0.036,-0.357l-0.037,-0.354l-0.037,-0.351l-0.039,-0.353l-0.04,-0.353l-0.041,-0.352l-0.042,-0.35l-0.042,-0.346l-0.044,-0.348l-0.045,-0.345l-0.045,-0.345l-0.047,-0.346l-0.047,-0.34l-0.049,-0.339l-0.05,-0.344l-0.05,-0.338l-0.052,-0.334l-0.052,-0.333l-0.054,-0.334l-0.054,-0.331l-0.056,-0.33l-0.057,-0.328l-0.057,-0.325l-0.059,-0.325l-0.06,-0.322l-0.06,-0.318l-0.062,-0.319l-0.063,-0.318l-0.063,-0.31l-0.065,-0.312l-0.065,-0.31l-0.067,-0.308l-0.068,-0.304l-0.069,-0.302l-0.069,-0.3l-0.07,-0.296l-0.072,-0.293l-0.073,-0.295l-0.073,-0.289l-0.074,-0.285l-0.075,-0.285l-0.076,-0.28l-0.077,-0.278l-0.077,-0.273l-0.08,-0.273l-0.079,-0.271l-0.081,-0.265l-0.08,-0.261l-0.082,-0.26l-0.083,-0.258l-0.082,-0.249l-0.085,-0.252l-0.085,-0.247l-0.084,-0.241l-0.086,-0.238l-0.086,-0.235l-0.087,-0.233l-0.088,-0.229l-0.087,-0.223l-0.088,-0.22l-0.09,-0.22l-0.088,-0.211l-0.089,-0.207l-0.09,-0.207l-0.09,-0.201l-0.09,-0.198l-0.089,-0.191l-0.097,-0.204l-0.039,-0.079l-0.045,-0.092l-0.045,-0.091l-0.045,-0.09l-0.045,-0.089l-0.045,-0.088l-0.043,-0.082l-0.045,-0.086l-0.048,-0.091l-0.042,-0.079l-0.043,-0.079l-0.048,-0.088l-0.045,-0.081l-0.04,-0.071l-0.045,-0.08l-0.049,-0.084l-0.042,-0.072l-0.042,-0.072l-0.045,-0.077l-0.046,-0.075l-0.041,-0.069l-0.042,-0.068l-0.045,-0.072l-0.042,-0.067l-0.042,-0.065l-0.045,-0.069l-0.044,-0.069l-0.042,-0.063l-0.038,-0.057l-0.044,-0.065l-0.044,-0.064l-0.038,-0.055l-0.041,-0.059l-0.044,-0.061l-0.04,-0.055l-0.04,-0.056l-0.04,-0.054l-0.04,-0.053l-0.04,-0.054l-0.039,-0.051l-0.039,-0.05l-0.037,-0.047l-0.038,-0.048l-0.042,-0.052l-0.035,-0.043l-0.038,-0.047l-0.038,-0.045l-0.034,-0.04l-0.037,-0.044l-0.038,-0.042l-0.037,-0.043l-0.033,-0.037l-0.032,-0.036l-0.037,-0.039l-0.036,-0.039l-0.032,-0.035l-0.035,-0.037l-0.034,-0.035l-0.029,-0.029l-0.034,-0.034l-0.034,-0.034l-0.027,-0.026l-0.033,-0.032l-0.03,-0.029l-0.029,-0.027l-0.033,-0.031l-0.029,-0.026l-0.028,-0.025l-0.029,-0.026l-0.031,-0.027l-0.027,-0.023l-0.024,-0.02l-0.027,-0.023l-0.031,-0.025l-0.027,-0.022l-0.023,-0.018l-0.025,-0.02l-0.026,-0.02l-0.025,-0.019l-0.026,-0.019l-0.025,-0.019l-0.025,-0.018l-0.021,-0.015l-0.024,-0.016l-0.026,-0.018l-0.021,-0.015l-0.023,-0.015l-0.02,-0.013l-0.024,-0.016l-0.023,-0.014l-0.022,-0.014l-0.02,-0.012l-0.023,-0.013l-0.023,-0.014l-0.021,-0.012l-0.02,-0.012l-0.02,-0.01l-0.023,-0.013l-0.023,-0.012l-0.02,-0.011l-0.019,-0.009l-0.023,-0.012l-0.023,-0.012l-0.019,-0.009l-0.021,-0.009l-0.025,-0.012l-0.02,-0.009l-0.02,-0.009l-0.023,-0.01l-0.023,-0.009l-0.024,-0.01l-0.022,-0.009l-0.021,-0.008l-0.026,-0.01l-0.024,-0.009l-0.026,-0.01l-0.023,-0.008l-0.024,-0.008l-0.028,-0.01l-0.026,-0.008l-0.028,-0.009l-0.026,-0.008l-0.029,-0.009l-0.03,-0.008l-0.029,-0.008l-0.027,-0.008l-0.033,-0.008l-0.033,-0.009l-0.031,-0.008l-0.033,-0.007l-0.036,-0.009l-0.034,-0.007l-0.035,-0.008l-0.038,-0.007l-0.036,-0.007l-0.04,-0.008l-0.04,-0.007l-0.04,-0.007l-0.042,-0.007l-0.044,-0.006l-0.044,-0.007l-0.045,-0.006l-0.044,-0.006l-0.049,-0.006l-0.049,-0.005l-0.05,-0.006l-0.051,-0.005l-0.052,-0.004l-0.054,-0.005l-0.056,-0.004l-0.057,-0.004l-0.056,-0.003l-0.059,-0.003l-0.061,-0.003l-0.062,-0.002l-0.063,-0.002l-0.065,-0.002l-0.067,-0.001l-0.067,0l-0.068,0l-0.071,0l-0.073,0.001l-0.075,0.002l-0.076,0.002l-0.075,0.002l-0.078,0.004l-0.08,0.003l-0.083,0.005l-0.082,0.005l-0.085,0.006l-0.087,0.007l-0.089,0.007l-0.088,0.008l-0.091,0.009l-0.095,0.009l-0.094,0.011l-0.096,0.011l-0.098,0.012l-0.1,0.013l-0.101,0.013l-0.103,0.015l-0.105,0.015l-0.106,0.017l-0.108,0.017l-0.109,0.019l-0.112,0.019l-0.114,0.02l-0.115,0.022l-0.117,0.022l-0.118,0.024l-0.119,0.024l-0.123,0.026l-0.123,0.026l-0.125,0.028l-0.126,0.029l-0.129,0.03l-0.132,0.032l-0.131,0.032l-0.132,0.033l-0.137,0.036l-0.138,0.036l-0.137,0.037l-0.141,0.039l-0.142,0.04l-0.143,0.041l-0.147,0.042l-0.146,0.044l-0.151,0.046l-0.151,0.046l-0.151,0.047l-0.154,0.05l-0.155,0.05l-0.158,0.052l-0.147,0.05l-0.089,0.03l-0.078,0.028l-0.079,0.028l-0.077,0.029l-0.076,0.029l-0.075,0.029l-0.077,0.031l-0.076,0.03l-0.076,0.032l-0.076,0.033l-0.075,0.032l-0.075,0.034l-0.076,0.034l-0.077,0.036l-0.072,0.034l-0.076,0.037l-0.077,0.038l-0.074,0.036l-0.075,0.039l-0.075,0.039l-0.077,0.041l-0.075,0.041l-0.073,0.04l-0.075,0.041l-0.076,0.044l-0.075,0.044l-0.078,0.046l-0.076,0.045l-0.073,0.045l-0.077,0.048l-0.076,0.048l-0.074,0.047l-0.077,0.05l-0.076,0.051l-0.077,0.052l-0.078,0.052l-0.076,0.053l-0.077,0.054l-0.074,0.054l-0.077,0.056l-0.08,0.059l-0.078,0.057l-0.074,0.057l-0.08,0.061l-0.079,0.061l-0.075,0.06l-0.08,0.064l-0.078,0.063l-0.078,0.064l-0.078,0.066l-0.078,0.065l-0.081,0.07l-0.079,0.068l-0.078,0.068l-0.079,0.071l-0.081,0.073l-0.079,0.072l-0.079,0.073l-0.08,0.076l-0.08,0.075l-0.079,0.076l-0.079,0.077l-0.082,0.08l-0.081,0.081l-0.079,0.08l-0.08,0.081l-0.081,0.084l-0.08,0.083l-0.082,0.087l-0.081,0.087l-0.079,0.085l-0.082,0.09l-0.08,0.087l-0.079,0.089l-0.082,0.092l-0.084,0.097l-0.079,0.091l-0.079,0.093l-0.085,0.1l-0.078,0.094l-0.082,0.098l-0.082,0.1l-0.078,0.097l-0.084,0.104l-0.079,0.1l-0.081,0.103l-0.08,0.104l-0.081,0.106l-0.081,0.106l-0.078,0.104l-0.084,0.112l-0.08,0.108l-0.08,0.11l-0.08,0.111l-0.08,0.112l-0.08,0.113l-0.079,0.113l-0.08,0.115l-0.079,0.115l-0.079,0.116l-0.079,0.118l-0.081,0.122l-0.078,0.118l-0.078,0.12l-0.081,0.124l-0.078,0.122l-0.077,0.122l-0.078,0.123l-0.079,0.128l-0.077,0.124l-0.077,0.126l-0.078,0.13l-0.076,0.128l-0.078,0.131l-0.076,0.129l-0.078,0.134l-0.075,0.13l-0.074,0.13l-0.079,0.14l-0.075,0.133l-0.073,0.132l-0.076,0.138l-0.073,0.135l-0.075,0.139l-0.075,0.14l-0.072,0.137l-0.074,0.141l-0.074,0.142l-0.074,0.143l-0.071,0.139l-0.072,0.143l-0.073,0.145l-0.072,0.145l-0.071,0.146l-0.07,0.142l-0.071,0.147l-0.07,0.147l-0.07,0.149l-0.07,0.149l-0.07,0.148l-0.069,0.15l-0.068,0.15l-0.068,0.151l-0.063,0.139l-0.14,0.317l-0.134,0.308l-0.132,0.309l-0.13,0.31l-0.128,0.313l-0.127,0.315l-0.126,0.317l-0.124,0.317l-0.122,0.322l-0.121,0.323l-0.119,0.321l-0.118,0.327l-0.116,0.326l-0.114,0.327l-0.112,0.33l-0.11,0.328l-0.109,0.331l-0.108,0.332l-0.105,0.333l-0.104,0.334l-0.102,0.334l-0.099,0.333l-0.099,0.336l-0.096,0.336l-0.096,0.338l-0.092,0.336l-0.091,0.335l-0.09,0.338l-0.087,0.335l-0.085,0.336l-0.084,0.337l-0.082,0.335l-0.08,0.338l-0.079,0.336l-0.076,0.333l-0.074,0.335l-0.073,0.333l-0.071,0.333l-0.069,0.334l-0.067,0.329l-0.065,0.329l-0.064,0.329l-0.062,0.33l-0.06,0.326l-0.057,0.322l-0.056,0.325l-0.055,0.323l-0.052,0.32l-0.051,0.319l-0.049,0.314l-0.047,0.316l-0.046,0.314l-0.043,0.309l-0.041,0.306l-0.04,0.306l-0.04,0.316l-0.054,0.441l-0.055,0.451l-0.053,0.451l-0.053,0.452l-0.052,0.452l-0.051,0.454l-0.051,0.453l-0.05,0.453l-0.049,0.455l-0.048,0.456l-0.048,0.455l-0.046,0.454l-0.046,0.457l-0.045,0.456l-0.045,0.457l-0.043,0.457l-0.043,0.457l-0.043,0.46l-0.041,0.458l-0.041,0.458l-0.04,0.461l-0.039,0.458l-0.039,0.461l-0.038,0.462l-0.037,0.459l-0.037,0.462l-0.036,0.462l-0.034,0.456l-0.069,0.932l-0.066,0.927l-0.062,0.929l-0.061,0.93l-0.057,0.93l-0.055,0.934l-0.053,0.935l-0.05,0.936l-0.047,0.938l-0.045,0.938l-0.043,0.94l-0.04,0.943l-0.038,0.942l-0.036,0.944l-0.033,0.947l-0.031,0.947l-0.029,0.947l-0.027,0.95l-0.025,0.951l-0.022,0.952l-0.021,0.953l-0.018,0.955l-0.017,0.956l-0.015,0.957l-0.012,0.957l-0.011,0.959l-0.009,0.961l-0.007,0.962l-0.006,0.962l-0.003,0.963l-0.002,0.965l-0.001,0.966l0.001,0.966l0.003,0.967l0.005,0.969l0.006,0.969l0.007,0.972l0.009,0.971l0.01,0.972l0.011,0.974l0.013,0.973l0.014,0.975l0.015,0.976l0.017,0.976l0.018,0.978l0.018,0.979l0.02,0.98l0.021,0.979l0.022,0.98l0.023,0.981l0.024,0.981l0.025,0.984l0.025,0.984l0.026,0.98l0.056,1.973l0.057,1.973l0.061,1.974l0.062,1.978l0.064,1.978l0.066,1.981l0.067,1.982l0.068,1.985l0.137,3.975l0.136,3.976l0.068,1.992l0.066,1.992l0.065,1.993l0.063,1.994l0.061,1.994l0.059,1.995l0.056,1.992l0.027,1.001l0.026,0.997l0.025,0.998l0.024,0.998l0.023,0.999l0.023,0.997l0.021,0.997l0.02,0.998l0.02,0.998l0.018,0.999l0.016,0.997l0.016,0.997l0.014,0.999l0.013,0.996l0.012,0.998l0.01,0.998l0.009,0.997l0.007,0.997l0.006,0.997l0.004,0.995l0.003,0.997l0.001,0.983l-0.034,1.047l-0.102,1.042l-0.169,1.033l-0.237,1.02l-0.303,1.002l-0.368,0.98l-0.432,0.954l-0.492,0.924l-0.553,0.89l-0.609,0.851l-0.663,0.81l-0.715,0.765l-0.764,0.716l-0.809,0.665l-0.85,0.611l-0.889,0.553l-0.923,0.495l-0.953,0.433l-0.98,0.369l-1.001,0.305l-1.02,0.239l-1.033,0.171l-1.042,0.104l-1.046,0.035l-1.047,-0.034l-1.042,-0.101l-1.033,-0.17l-1.02,-0.237l-1.002,-0.303l-0.98,-0.368l-0.954,-0.431l-0.924,-0.493l-0.889,-0.552l-0.852,-0.609l-0.81,-0.664l-0.765,-0.715l-0.716,-0.764l-0.665,-0.808l-0.611,-0.851l-0.553,-0.889l-0.495,-0.923l-0.432,-0.953l-0.37,-0.98l-0.305,-1.001l-0.238,-1.02l-0.172,-1.033l-0.103,-1.041l-0.035,-1.047l-0.001,-0.955l-0.003,-0.943l-0.004,-0.946l-0.005,-0.947l-0.007,-0.948l-0.008,-0.951l-0.01,-0.95l-0.011,-0.953l-0.013,-0.955l-0.013,-0.955l-0.015,-0.958l-0.017,-0.96l-0.017,-0.959l-0.018,-0.962l-0.02,-0.963l-0.021,-0.965l-0.021,-0.966l-0.023,-0.967l-0.023,-0.968l-0.025,-0.97l-0.025,-0.971l-0.026,-0.97l-0.055,-1.952l-0.057,-1.953l-0.06,-1.958l-0.062,-1.963l-0.065,-1.967l-0.065,-1.972l-0.067,-1.975l-0.136,-3.966l-0.137,-3.977l-0.068,-1.996l-0.068,-1.998l-0.066,-2.002l-0.066,-2.005l-0.063,-2.008l-0.061,-2.01l-0.059,-2.014l-0.057,-2.013l-0.027,-1.013l-0.026,-1.009l-0.025,-1.01l-0.025,-1.012l-0.023,-1.011l-0.023,-1.013l-0.022,-1.013l-0.02,-1.012l-0.02,-1.014l-0.018,-1.014l-0.017,-1.015l-0.016,-1.015l-0.015,-1.016l-0.013,-1.017l-0.012,-1.016l-0.011,-1.018l-0.009,-1.017l-0.008,-1.017l-0.006,-1.019l-0.004,-1.018l-0.004,-1.02l-0.001,-1.02l0.001,-1.018l0.002,-1.02l0.004,-1.021l0.005,-1.021l0.008,-1.021l0.01,-1.02l0.011,-1.022l0.014,-1.022l0.015,-1.021l0.018,-1.022l0.02,-1.022l0.022,-1.023l0.024,-1.023l0.027,-1.022l0.028,-1.022l0.032,-1.024l0.033,-1.024l0.036,-1.022l0.039,-1.023l0.041,-1.024l0.044,-1.023l0.046,-1.024l0.05,-1.024l0.051,-1.023l0.055,-1.023l0.058,-1.024l0.06,-1.022l0.063,-1.025l0.066,-1.023l0.07,-1.023l0.072,-1.024l0.075,-1.016l0.039,-0.518l0.04,-0.511l0.041,-0.511l0.041,-0.513l0.042,-0.511l0.043,-0.51l0.044,-0.513l0.044,-0.51l0.046,-0.512l0.046,-0.512l0.047,-0.51l0.048,-0.511l0.049,-0.511l0.05,-0.511l0.05,-0.511l0.052,-0.511l0.052,-0.512l0.054,-0.511l0.054,-0.51l0.055,-0.509l0.056,-0.512l0.057,-0.511l0.057,-0.509l0.059,-0.511l0.06,-0.511l0.061,-0.511l0.061,-0.51l0.064,-0.52l0.055,-0.44l0.06,-0.454l0.062,-0.458l0.064,-0.46l0.067,-0.458l0.069,-0.46l0.072,-0.467l0.074,-0.466l0.076,-0.466l0.079,-0.468l0.082,-0.47l0.085,-0.476l0.087,-0.474l0.089,-0.474l0.092,-0.476l0.095,-0.481l0.098,-0.481l0.099,-0.48l0.103,-0.484l0.106,-0.484l0.108,-0.486l0.112,-0.488l0.113,-0.487l0.117,-0.488l0.119,-0.491l0.123,-0.492l0.125,-0.492l0.128,-0.496l0.131,-0.493l0.135,-0.497l0.137,-0.497l0.139,-0.495l0.143,-0.497l0.147,-0.499l0.149,-0.5l0.153,-0.501l0.155,-0.499l0.159,-0.502l0.162,-0.501l0.165,-0.502l0.169,-0.503l0.171,-0.502l0.176,-0.504l0.179,-0.503l0.181,-0.502l0.186,-0.506l0.189,-0.502l0.192,-0.503l0.196,-0.505l0.2,-0.504l0.204,-0.504l0.207,-0.504l0.211,-0.504l0.215,-0.503l0.218,-0.501l0.216,-0.491l0.119,-0.264l0.114,-0.251l0.114,-0.25l0.116,-0.251l0.116,-0.251l0.118,-0.25l0.118,-0.25l0.12,-0.25l0.12,-0.25l0.123,-0.253l0.123,-0.249l0.124,-0.249l0.124,-0.248l0.126,-0.249l0.128,-0.252l0.128,-0.248l0.128,-0.247l0.13,-0.248l0.133,-0.251l0.132,-0.246l0.133,-0.246l0.136,-0.25l0.135,-0.246l0.138,-0.25l0.14,-0.248l0.135,-0.241l0.142,-0.248l0.143,-0.248l0.142,-0.243l0.145,-0.248l0.144,-0.243l0.147,-0.245l0.146,-0.243l0.15,-0.245l0.151,-0.245l0.15,-0.241l0.153,-0.244l0.154,-0.243l0.156,-0.244l0.155,-0.238l0.158,-0.243l0.16,-0.242l0.158,-0.237l0.162,-0.241l0.163,-0.24l0.164,-0.239l0.166,-0.24l0.167,-0.238l0.169,-0.238l0.169,-0.238l0.171,-0.236l0.173,-0.237l0.174,-0.236l0.172,-0.231l0.179,-0.238l0.178,-0.234l0.178,-0.232l0.181,-0.234l0.182,-0.231l0.186,-0.234l0.182,-0.228l0.189,-0.233l0.187,-0.229l0.189,-0.228l0.194,-0.231l0.189,-0.224l0.196,-0.229l0.197,-0.228l0.194,-0.222l0.198,-0.224l0.202,-0.225l0.203,-0.225l0.202,-0.221l0.207,-0.224l0.206,-0.22l0.206,-0.218l0.212,-0.22l0.21,-0.218l0.214,-0.217l0.216,-0.218l0.216,-0.215l0.216,-0.212l0.22,-0.215l0.222,-0.213l0.224,-0.212l0.224,-0.21l0.227,-0.21l0.229,-0.208l0.227,-0.206l0.232,-0.206l0.235,-0.206l0.235,-0.204l0.235,-0.201l0.239,-0.202l0.24,-0.201l0.242,-0.199l0.244,-0.198l0.244,-0.195l0.25,-0.198l0.248,-0.193l0.248,-0.19l0.255,-0.194l0.255,-0.19l0.253,-0.186l0.258,-0.187l0.261,-0.187l0.262,-0.184l0.263,-0.182l0.264,-0.18l0.266,-0.179l0.268,-0.178l0.27,-0.176l0.274,-0.175l0.273,-0.173l0.274,-0.17l0.279,-0.171l0.279,-0.167l0.279,-0.165l0.282,-0.164l0.283,-0.161l0.287,-0.161l0.29,-0.16l0.289,-0.156l0.289,-0.153l0.293,-0.153l0.294,-0.151l0.298,-0.149l0.296,-0.146l0.298,-0.144l0.305,-0.144l0.301,-0.14l0.303,-0.137l0.306,-0.136l0.308,-0.135l0.309,-0.131l0.31,-0.129l0.312,-0.127l0.313,-0.125l0.316,-0.123l0.318,-0.12l0.318,-0.118l0.317,-0.115l0.321,-0.113l0.312,-0.107l0.317,-0.106l0.306,-0.101l0.306,-0.1l0.305,-0.097l0.307,-0.097l0.305,-0.094l0.303,-0.092l0.305,-0.091l0.304,-0.088l0.306,-0.088l0.304,-0.085l0.304,-0.084l0.305,-0.082l0.303,-0.08l0.303,-0.078l0.305,-0.076l0.304,-0.075l0.302,-0.073l0.303,-0.071l0.304,-0.069l0.303,-0.068l0.304,-0.065l0.302,-0.064l0.303,-0.062l0.303,-0.06l0.303,-0.058l0.302,-0.056l0.303,-0.055l0.302,-0.052l0.302,-0.051l0.302,-0.048l0.303,-0.047l0.303,-0.045l0.301,-0.043l0.303,-0.041l0.302,-0.039l0.301,-0.036l0.303,-0.036l0.302,-0.033l0.3,-0.03l0.302,-0.029l0.303,-0.028l0.301,-0.024l0.3,-0.023l0.302,-0.021l0.302,-0.019l0.3,-0.017l0.301,-0.014l0.301,-0.013l0.302,-0.01l0.301,-0.008l0.299,-0.007l0.3,-0.004l0.3,-0.001l0.301,0Z" style="fill:#ffb000;"/><path d="M372.754,237.64l0.677,0.004l0.678,0.006l0.679,0.01l0.679,0.012l0.68,0.016l0.68,0.019l0.68,0.022l0.68,0.025l0.68,0.028l0.681,0.031l0.681,0.034l0.68,0.037l0.681,0.041l0.68,0.043l0.68,0.047l0.68,0.05l0.679,0.053l0.68,0.056l0.679,0.059l0.679,0.063l0.677,0.066l0.677,0.069l0.677,0.072l0.676,0.076l0.664,0.078l0.348,0.042l0.337,0.041l0.337,0.043l0.337,0.043l0.336,0.044l0.336,0.045l0.336,0.046l0.336,0.046l0.335,0.048l0.336,0.048l0.334,0.049l0.335,0.05l0.335,0.051l0.334,0.052l0.333,0.052l0.334,0.054l0.332,0.054l0.333,0.055l0.334,0.057l0.331,0.057l0.332,0.057l0.331,0.059l0.333,0.06l0.331,0.061l0.33,0.061l0.33,0.063l0.329,0.063l0.329,0.064l0.33,0.066l0.329,0.066l0.329,0.067l0.327,0.068l0.327,0.069l0.327,0.069l0.327,0.071l0.326,0.072l0.327,0.073l0.326,0.074l0.323,0.074l0.324,0.076l0.326,0.077l0.323,0.077l0.324,0.079l0.323,0.08l0.322,0.08l0.321,0.082l0.322,0.082l0.321,0.084l0.32,0.085l0.321,0.086l0.319,0.086l0.318,0.088l0.319,0.089l0.318,0.09l0.318,0.091l0.317,0.093l0.315,0.092l0.316,0.095l0.318,0.096l0.313,0.096l0.314,0.098l0.313,0.098l0.315,0.101l0.312,0.101l0.311,0.102l0.314,0.104l0.31,0.104l0.309,0.106l0.312,0.107l0.309,0.109l0.308,0.109l0.31,0.111l0.306,0.112l0.307,0.113l0.308,0.115l0.304,0.115l0.304,0.117l0.307,0.119l0.305,0.12l0.301,0.121l0.303,0.122l0.302,0.124l0.303,0.126l0.302,0.127l0.298,0.127l0.3,0.13l0.3,0.131l0.298,0.132l0.297,0.134l0.297,0.135l0.296,0.137l0.297,0.138l0.294,0.14l0.296,0.142l0.293,0.143l0.292,0.144l0.293,0.147l0.293,0.149l0.292,0.15l0.287,0.149l0.289,0.154l0.291,0.155l0.29,0.158l0.288,0.159l0.287,0.16l0.285,0.162l0.284,0.162l0.283,0.165l0.282,0.166l0.278,0.165l0.277,0.167l0.277,0.169l0.274,0.169l0.273,0.171l0.272,0.172l0.27,0.172l0.271,0.175l0.267,0.174l0.263,0.174l0.266,0.176l0.266,0.18l0.26,0.177l0.258,0.177l0.26,0.18l0.26,0.183l0.256,0.181l0.253,0.18l0.253,0.183l0.253,0.183l0.252,0.185l0.25,0.185l0.246,0.184l0.247,0.186l0.249,0.189l0.243,0.186l0.244,0.188l0.242,0.188l0.24,0.188l0.24,0.19l0.239,0.19l0.238,0.191l0.234,0.189l0.236,0.192l0.235,0.193l0.234,0.193l0.229,0.19l0.232,0.194l0.23,0.194l0.227,0.193l0.227,0.194l0.224,0.192l0.228,0.197l0.225,0.196l0.228,0.2l0.435,0.383l0.44,0.394l0.433,0.391l0.43,0.393l0.428,0.396l0.422,0.393l0.418,0.394l0.416,0.395l0.411,0.395l0.408,0.394l0.405,0.396l0.4,0.394l0.396,0.393l0.394,0.394l0.391,0.393l0.387,0.393l0.383,0.39l0.379,0.389l0.379,0.391l0.373,0.387l0.372,0.388l0.367,0.386l0.363,0.382l0.361,0.383l0.357,0.378l0.355,0.38l0.353,0.377l0.351,0.377l0.685,0.738l0.676,0.731l0.664,0.722l1.304,1.418l0.218,0.238l0.228,0.252l0.226,0.252l0.224,0.252l0.223,0.252l0.218,0.25l0.213,0.247l0.217,0.255l0.213,0.252l0.208,0.249l0.209,0.253l0.204,0.251l0.204,0.252l0.2,0.252l0.203,0.257l0.195,0.252l0.194,0.253l0.195,0.258l0.191,0.255l0.192,0.261l0.187,0.259l0.183,0.257l0.182,0.258l0.183,0.265l0.181,0.267l0.174,0.26l0.176,0.268l0.178,0.274l0.169,0.268l0.168,0.27l0.17,0.279l0.165,0.277l0.164,0.28l0.162,0.284l0.157,0.281l0.158,0.291l0.157,0.294l0.153,0.294l0.146,0.29l0.149,0.303l0.149,0.314l0.141,0.304l0.139,0.31l0.136,0.314l0.135,0.321l0.135,0.334l0.129,0.332l0.123,0.329l0.12,0.336l0.116,0.341l0.117,0.358l0.109,0.355l0.103,0.352l0.102,0.369l0.098,0.377l0.092,0.384l0.082,0.369l0.08,0.388l0.076,0.406l0.066,0.391l0.06,0.399l0.054,0.405l0.048,0.425l0.038,0.42l0.032,0.428l0.022,0.434l0.014,0.427l0.005,0.434l-0.004,0.454l-0.014,0.446l-0.023,0.451l-0.035,0.456l-0.043,0.447l-0.055,0.465l-0.065,0.454l-0.076,0.457l-0.087,0.459l-0.099,0.461l-0.11,0.463l-0.118,0.449l-0.129,0.448l-0.145,0.461l-0.152,0.446l-0.158,0.43l-0.173,0.442l-0.185,0.438l-0.189,0.421l-0.204,0.427l-0.209,0.412l-0.211,0.395l-0.225,0.399l-0.234,0.393l-0.235,0.375l-0.242,0.369l-0.249,0.363l-0.253,0.352l-0.268,0.356l-0.26,0.33l-0.261,0.32l-0.276,0.323l-0.271,0.304l-0.268,0.29l-0.277,0.291l-0.288,0.288l-0.275,0.267l-0.279,0.26l-0.278,0.251l-0.279,0.243l-0.282,0.238l-0.284,0.231l-0.276,0.218l-0.275,0.21l-0.283,0.209l-0.277,0.198l-0.275,0.192l-0.275,0.186l-0.276,0.18l-0.27,0.172l-0.268,0.165l-0.268,0.161l-0.266,0.155l-0.266,0.15l-0.26,0.144l-0.263,0.141l-0.258,0.135l-0.257,0.13l-0.262,0.13l-0.247,0.119l-0.252,0.119l-0.254,0.116l-0.245,0.11l-0.249,0.108l-0.244,0.104l-0.24,0.099l-0.245,0.099l-0.24,0.095l-0.237,0.091l-0.238,0.09l-0.237,0.087l-0.234,0.084l-0.229,0.08l-0.231,0.08l-0.232,0.077l-0.226,0.074l-0.227,0.073l-0.225,0.07l-0.224,0.069l-0.227,0.068l-0.221,0.065l-0.219,0.063l-0.219,0.061l-0.238,0.066l-0.415,0.111l-0.43,0.11l-0.427,0.105l-0.423,0.1l-0.419,0.095l-0.416,0.092l-0.414,0.087l-0.41,0.084l-0.41,0.08l-0.404,0.077l-0.403,0.074l-0.401,0.071l-0.397,0.068l-0.396,0.067l-0.394,0.063l-0.392,0.062l-0.389,0.06l-0.386,0.058l-0.386,0.056l-0.383,0.054l-0.381,0.053l-0.38,0.052l-0.376,0.05l-0.38,0.05l-0.735,0.095l-0.733,0.091l-0.724,0.089l-0.712,0.086l-1.395,0.169l-0.677,0.082l-0.665,0.082l-0.65,0.082l-0.644,0.084l-0.303,0.04l-0.306,0.041l-0.303,0.042l-0.297,0.042l-0.291,0.042l-0.288,0.042l-0.283,0.043l-0.302,0.047l-0.416,0.065l-0.442,0.068l-0.442,0.066l-0.44,0.066l-0.442,0.064l-0.442,0.063l-0.441,0.063l-0.441,0.061l-0.44,0.06l-0.441,0.059l-0.442,0.059l-0.44,0.057l-0.439,0.056l-0.44,0.056l-0.44,0.054l-0.439,0.054l-0.439,0.053l-0.446,0.053l-0.869,0.101l-0.876,0.098l-0.873,0.096l-0.872,0.092l-0.871,0.09l-0.868,0.087l-0.867,0.085l-0.865,0.083l-0.862,0.08l-0.86,0.078l-0.857,0.077l-0.855,0.074l-0.851,0.073l-0.85,0.072l-0.845,0.069l-0.843,0.069l-0.842,0.068l-1.663,0.131l-1.651,0.128l-1.646,0.127l-0.398,0.03l-0.406,0.03l-0.408,0.029l-0.407,0.027l-0.406,0.027l-0.406,0.026l-0.405,0.025l-0.406,0.024l-0.404,0.023l-0.406,0.023l-0.405,0.021l-0.403,0.021l-0.404,0.019l-0.412,0.02l-0.798,0.034l-0.805,0.032l-0.803,0.029l-0.803,0.026l-0.801,0.023l-0.8,0.021l-0.798,0.017l-0.797,0.015l-0.796,0.013l-0.794,0.01l-0.793,0.008l-0.791,0.005l-0.79,0.004l-0.788,0.002l-0.787,-0.001l-0.786,-0.002l-0.784,-0.004l-0.782,-0.005l-0.781,-0.007l-0.779,-0.008l-0.777,-0.01l-0.776,-0.011l-0.774,-0.012l-0.773,-0.013l-0.771,-0.014l-0.769,-0.015l-0.771,-0.016l-1.526,-0.033l-1.522,-0.036l-1.516,-0.037l-0.573,-0.014l0.024,0.039l0.139,0.229l0.141,0.229l0.14,0.226l0.139,0.221l0.14,0.22l0.137,0.214l0.139,0.214l0.141,0.215l0.138,0.208l0.138,0.206l0.139,0.204l0.136,0.197l0.139,0.199l0.139,0.197l0.137,0.193l0.139,0.191l0.137,0.187l0.136,0.183l0.139,0.185l0.138,0.18l0.136,0.176l0.138,0.175l0.138,0.174l0.137,0.169l0.138,0.169l0.139,0.167l0.138,0.163l0.139,0.162l0.138,0.159l0.137,0.155l0.14,0.156l0.141,0.154l0.139,0.15l0.14,0.148l0.141,0.147l0.142,0.147l0.142,0.143l0.14,0.14l0.143,0.139l0.144,0.138l0.146,0.138l0.145,0.135l0.147,0.133l0.16,0.144l0.059,0.052l0.072,0.063l0.075,0.066l0.077,0.066l0.078,0.066l0.072,0.061l0.074,0.062l0.08,0.066l0.073,0.06l0.076,0.062l0.081,0.065l0.076,0.061l0.076,0.06l0.078,0.062l0.079,0.061l0.078,0.06l0.08,0.061l0.08,0.06l0.076,0.057l0.082,0.061l0.082,0.06l0.082,0.06l0.081,0.057l0.083,0.06l0.083,0.059l0.082,0.056l0.083,0.058l0.083,0.057l0.087,0.058l0.084,0.057l0.086,0.057l0.088,0.058l0.088,0.057l0.086,0.056l0.088,0.056l0.086,0.054l0.089,0.056l0.094,0.058l0.091,0.056l0.089,0.053l0.091,0.055l0.092,0.055l0.095,0.055l0.096,0.056l0.092,0.053l0.095,0.053l0.097,0.055l0.097,0.054l0.1,0.055l0.098,0.053l0.098,0.053l0.099,0.052l0.1,0.053l0.102,0.053l0.104,0.053l0.106,0.054l0.101,0.051l0.103,0.051l0.108,0.053l0.108,0.053l0.106,0.051l0.109,0.051l0.109,0.051l0.111,0.052l0.113,0.051l0.109,0.05l0.115,0.051l0.116,0.051l0.115,0.05l0.115,0.05l0.118,0.05l0.116,0.049l0.12,0.05l0.123,0.051l0.122,0.049l0.12,0.048l0.123,0.049l0.126,0.049l0.128,0.049l0.127,0.048l0.124,0.047l0.132,0.049l0.131,0.048l0.13,0.047l0.132,0.047l0.134,0.047l0.134,0.046l0.136,0.047l0.14,0.047l0.138,0.046l0.139,0.046l0.142,0.046l0.143,0.045l0.141,0.045l0.145,0.045l0.146,0.044l0.147,0.045l0.149,0.044l0.15,0.044l0.153,0.044l0.15,0.043l0.153,0.043l0.158,0.044l0.153,0.041l0.158,0.043l0.16,0.042l0.159,0.041l0.164,0.042l0.162,0.041l0.162,0.04l0.169,0.041l0.165,0.04l0.169,0.04l0.171,0.039l0.17,0.039l0.173,0.039l0.173,0.038l0.175,0.038l0.178,0.038l0.178,0.038l0.18,0.036l0.182,0.037l0.182,0.036l0.183,0.036l0.188,0.036l0.187,0.035l0.186,0.034l0.19,0.035l0.194,0.034l0.193,0.034l0.193,0.032l0.195,0.033l0.199,0.032l0.199,0.032l0.199,0.032l0.202,0.031l0.205,0.03l0.204,0.03l0.206,0.03l0.21,0.03l0.209,0.028l0.21,0.028l0.213,0.028l0.214,0.028l0.216,0.027l0.218,0.026l0.218,0.026l0.22,0.025l0.223,0.025l0.224,0.025l0.225,0.024l0.227,0.023l0.228,0.023l0.23,0.023l0.232,0.022l0.234,0.021l0.234,0.021l0.236,0.021l0.238,0.019l0.24,0.02l0.24,0.019l0.244,0.018l0.245,0.018l0.245,0.017l0.248,0.016l0.25,0.016l0.252,0.016l0.251,0.015l0.255,0.014l0.257,0.014l0.256,0.013l0.26,0.013l0.261,0.012l0.262,0.011l0.266,0.011l0.266,0.01l0.266,0.01l0.27,0.009l0.271,0.008l0.272,0.008l0.275,0.007l0.267,0.007l0.567,0.011l0.564,0.009l0.571,0.007l0.577,0.003l0.585,0.001l0.591,-0.001l0.599,-0.004l0.606,-0.007l0.612,-0.009l0.62,-0.012l0.626,-0.015l0.634,-0.018l0.64,-0.02l0.647,-0.023l0.655,-0.026l0.662,-0.029l0.67,-0.032l0.676,-0.035l0.684,-0.037l0.69,-0.041l0.699,-0.043l0.704,-0.046l0.713,-0.05l0.72,-0.052l0.727,-0.055l0.736,-0.059l0.741,-0.061l0.75,-0.065l0.757,-0.068l0.764,-0.07l0.773,-0.074l0.779,-0.077l0.787,-0.081l0.795,-0.083l0.803,-0.087l0.81,-0.089l0.817,-0.094l0.825,-0.096l0.833,-0.099l0.841,-0.103l0.849,-0.107l0.856,-0.109l0.864,-0.113l0.873,-0.116l0.879,-0.12l0.888,-0.123l0.896,-0.126l0.904,-0.13l0.911,-0.133l0.919,-0.137l0.929,-0.14l0.954,-0.146l0.831,-0.105l0.835,-0.062l0.838,-0.018l0.837,0.026l0.835,0.07l0.83,0.113l0.823,0.157l0.813,0.2l0.802,0.242l0.788,0.283l0.773,0.324l0.754,0.365l0.734,0.403l0.712,0.441l0.688,0.478l0.662,0.513l0.635,0.547l0.604,0.58l0.574,0.61l0.541,0.64l0.507,0.667l0.471,0.693l0.434,0.716l0.396,0.738l0.357,0.758l0.317,0.775l0.275,0.791l0.234,0.805l0.192,0.815l0.149,0.825l0.105,0.831l0.061,0.835l0.018,0.837l-0.026,0.838l-0.07,0.834l-0.113,0.83l-0.157,0.823l-0.199,0.814l-0.242,0.802l-0.284,0.788l-0.324,0.772l-0.364,0.755l-0.404,0.734l-0.441,0.712l-0.478,0.688l-0.513,0.662l-0.547,0.634l-0.579,0.605l-0.611,0.574l-0.64,0.541l-0.667,0.506l-0.692,0.471l-0.717,0.434l-0.738,0.397l-0.758,0.356l-0.775,0.317l-0.791,0.276l-0.804,0.234l-0.816,0.192l-0.824,0.148l-0.991,0.152l-1.002,0.151l-0.996,0.148l-0.989,0.145l-0.981,0.141l-0.975,0.137l-0.968,0.134l-0.962,0.131l-0.954,0.127l-0.948,0.124l-0.941,0.12l-0.935,0.117l-0.928,0.114l-0.922,0.11l-0.915,0.107l-0.909,0.103l-0.902,0.1l-0.896,0.097l-0.89,0.094l-0.883,0.09l-0.877,0.086l-0.871,0.084l-0.866,0.08l-0.858,0.077l-0.853,0.073l-0.848,0.07l-0.841,0.067l-0.835,0.064l-0.829,0.06l-0.824,0.057l-0.818,0.054l-0.812,0.05l-0.807,0.048l-0.801,0.044l-0.795,0.04l-0.79,0.038l-0.784,0.034l-0.779,0.031l-0.774,0.028l-0.769,0.024l-0.763,0.021l-0.758,0.018l-0.752,0.015l-0.748,0.011l-0.742,0.009l-0.738,0.005l-0.733,0.002l-0.728,-0.002l-0.722,-0.005l-0.718,-0.008l-0.713,-0.011l-0.699,-0.014l-0.361,-0.009l-0.351,-0.009l-0.351,-0.01l-0.349,-0.011l-0.347,-0.011l-0.348,-0.013l-0.345,-0.013l-0.343,-0.014l-0.344,-0.015l-0.342,-0.016l-0.34,-0.017l-0.341,-0.017l-0.338,-0.018l-0.338,-0.019l-0.337,-0.02l-0.335,-0.021l-0.333,-0.021l-0.334,-0.023l-0.333,-0.023l-0.33,-0.024l-0.33,-0.025l-0.33,-0.025l-0.327,-0.027l-0.326,-0.027l-0.327,-0.028l-0.325,-0.029l-0.324,-0.03l-0.322,-0.03l-0.321,-0.032l-0.321,-0.032l-0.32,-0.033l-0.319,-0.034l-0.316,-0.035l-0.316,-0.035l-0.317,-0.037l-0.315,-0.037l-0.313,-0.038l-0.312,-0.039l-0.313,-0.04l-0.31,-0.041l-0.31,-0.042l-0.31,-0.042l-0.305,-0.043l-0.308,-0.044l-0.307,-0.045l-0.303,-0.046l-0.304,-0.046l-0.304,-0.048l-0.302,-0.049l-0.3,-0.048l-0.301,-0.051l-0.301,-0.051l-0.298,-0.052l-0.294,-0.052l-0.297,-0.054l-0.299,-0.055l-0.294,-0.055l-0.292,-0.056l-0.293,-0.057l-0.293,-0.058l-0.29,-0.059l-0.29,-0.059l-0.29,-0.061l-0.288,-0.061l-0.288,-0.063l-0.287,-0.063l-0.285,-0.064l-0.286,-0.065l-0.283,-0.066l-0.283,-0.067l-0.284,-0.068l-0.279,-0.068l-0.282,-0.07l-0.281,-0.071l-0.277,-0.07l-0.279,-0.073l-0.275,-0.073l-0.276,-0.074l-0.279,-0.075l-0.272,-0.075l-0.274,-0.077l-0.275,-0.079l-0.27,-0.078l-0.27,-0.079l-0.27,-0.08l-0.269,-0.082l-0.269,-0.082l-0.268,-0.083l-0.269,-0.085l-0.265,-0.085l-0.265,-0.085l-0.265,-0.087l-0.263,-0.088l-0.261,-0.088l-0.262,-0.09l-0.261,-0.09l-0.26,-0.092l-0.26,-0.092l-0.26,-0.094l-0.256,-0.094l-0.255,-0.094l-0.259,-0.098l-0.255,-0.097l-0.252,-0.097l-0.252,-0.098l-0.253,-0.1l-0.255,-0.102l-0.25,-0.101l-0.246,-0.102l-0.249,-0.103l-0.25,-0.105l-0.247,-0.105l-0.247,-0.107l-0.246,-0.107l-0.243,-0.108l-0.243,-0.108l-0.245,-0.111l-0.241,-0.11l-0.241,-0.112l-0.241,-0.113l-0.239,-0.113l-0.239,-0.115l-0.236,-0.115l-0.235,-0.115l-0.238,-0.118l-0.238,-0.12l-0.231,-0.117l-0.231,-0.119l-0.233,-0.121l-0.231,-0.121l-0.231,-0.123l-0.231,-0.124l-0.229,-0.125l-0.225,-0.123l-0.227,-0.126l-0.224,-0.126l-0.226,-0.128l-0.226,-0.13l-0.221,-0.128l-0.22,-0.129l-0.221,-0.131l-0.221,-0.132l-0.222,-0.134l-0.217,-0.134l-0.214,-0.131l-0.216,-0.135l-0.217,-0.138l-0.215,-0.137l-0.214,-0.137l-0.212,-0.138l-0.209,-0.138l-0.211,-0.14l-0.21,-0.141l-0.207,-0.14l-0.208,-0.143l-0.207,-0.142l-0.207,-0.145l-0.204,-0.144l-0.202,-0.144l-0.203,-0.146l-0.201,-0.146l-0.2,-0.146l-0.197,-0.147l-0.203,-0.151l-0.196,-0.148l-0.196,-0.149l-0.196,-0.151l-0.194,-0.151l-0.193,-0.152l-0.194,-0.153l-0.192,-0.154l-0.186,-0.15l-0.191,-0.155l-0.191,-0.157l-0.183,-0.152l-0.188,-0.157l-0.188,-0.16l-0.182,-0.155l-0.181,-0.155l-0.182,-0.158l-0.183,-0.16l-0.195,-0.172l-0.344,-0.309l-0.353,-0.321l-0.349,-0.324l-0.344,-0.325l-0.341,-0.328l-0.337,-0.329l-0.335,-0.333l-0.329,-0.332l-0.324,-0.333l-0.321,-0.336l-0.318,-0.336l-0.315,-0.34l-0.308,-0.338l-0.305,-0.339l-0.304,-0.344l-0.299,-0.343l-0.294,-0.343l-0.292,-0.345l-0.286,-0.344l-0.283,-0.346l-0.281,-0.348l-0.277,-0.347l-0.273,-0.348l-0.272,-0.351l-0.266,-0.348l-0.262,-0.348l-0.262,-0.352l-0.257,-0.351l-0.253,-0.349l-0.25,-0.351l-0.247,-0.35l-0.244,-0.35l-0.244,-0.355l-0.238,-0.35l-0.237,-0.352l-0.234,-0.352l-0.228,-0.348l-0.228,-0.352l-0.227,-0.354l-0.223,-0.351l-0.221,-0.352l-0.218,-0.35l-0.214,-0.349l-0.215,-0.352l-0.211,-0.35l-0.208,-0.348l-0.207,-0.349l-0.205,-0.35l-0.204,-0.351l-0.201,-0.348l-0.198,-0.347l-0.197,-0.347l-0.194,-0.345l-0.195,-0.348l-0.192,-0.347l-0.19,-0.345l-0.19,-0.348l-0.186,-0.342l-0.185,-0.344l-0.187,-0.347l-0.181,-0.341l-0.182,-0.343l-0.185,-0.35l-0.353,-0.674l-0.352,-0.68l-0.349,-0.676l-0.345,-0.677l-0.342,-0.672l-0.339,-0.671l-0.338,-0.67l-0.663,-1.321l-0.662,-1.321l-0.328,-0.653l-0.327,-0.652l-0.328,-0.65l-0.328,-0.646l-0.327,-0.643l-0.328,-0.641l-0.329,-0.638l-0.331,-0.636l-0.335,-0.639l-0.164,-0.311l-0.167,-0.316l-0.166,-0.31l-0.168,-0.314l-0.17,-0.315l-0.169,-0.312l-0.168,-0.31l-0.171,-0.31l-0.173,-0.314l-0.188,-0.339l-0.235,-0.426l-0.248,-0.455l-0.245,-0.456l-0.241,-0.455l-0.237,-0.455l-0.234,-0.457l-0.227,-0.451l-0.225,-0.454l-0.222,-0.456l-0.218,-0.456l-0.213,-0.454l-0.208,-0.452l-0.206,-0.456l-0.202,-0.457l-0.197,-0.455l-0.192,-0.453l-0.189,-0.457l-0.186,-0.459l-0.173,-0.439l-0.095,-0.244l-0.09,-0.235l-0.086,-0.228l-0.082,-0.221l-0.085,-0.228l-0.086,-0.237l-0.082,-0.229l-0.081,-0.229l-0.08,-0.23l-0.079,-0.231l-0.078,-0.232l-0.075,-0.224l-0.076,-0.231l-0.078,-0.24l-0.071,-0.224l-0.073,-0.234l-0.072,-0.233l-0.068,-0.226l-0.07,-0.235l-0.066,-0.227l-0.068,-0.235l-0.066,-0.236l-0.065,-0.235l-0.062,-0.229l-0.061,-0.229l-0.062,-0.237l-0.059,-0.231l-0.057,-0.229l-0.059,-0.239l-0.057,-0.239l-0.052,-0.223l-0.053,-0.232l-0.054,-0.24l-0.05,-0.232l-0.052,-0.242l-0.048,-0.233l-0.045,-0.225l-0.048,-0.243l-0.044,-0.234l-0.042,-0.226l-0.044,-0.244l-0.041,-0.235l-0.039,-0.227l-0.038,-0.236l-0.038,-0.236l-0.036,-0.237l-0.035,-0.237l-0.033,-0.237l-0.032,-0.229l-0.031,-0.238l-0.03,-0.238l-0.027,-0.229l-0.027,-0.239l-0.026,-0.23l-0.024,-0.239l-0.024,-0.239l-0.021,-0.231l-0.02,-0.231l-0.019,-0.23l-0.019,-0.241l-0.017,-0.24l-0.015,-0.231l-0.014,-0.232l-0.012,-0.231l-0.012,-0.232l-0.01,-0.241l-0.009,-0.232l-0.008,-0.232l-0.006,-0.232l-0.005,-0.232l-0.004,-0.232l-0.003,-0.232l-0.001,-0.232l-0.001,-0.233l0.001,-0.232l0.003,-0.232l0.003,-0.232l0.005,-0.223l0.006,-0.232l0.007,-0.232l0.008,-0.232l0.01,-0.232l0.01,-0.223l0.013,-0.246l0.026,-0.435l0.031,-0.453l0.036,-0.453l0.041,-0.452l0.044,-0.447l0.049,-0.446l0.053,-0.446l0.057,-0.439l0.061,-0.439l0.065,-0.439l0.068,-0.437l0.073,-0.436l0.076,-0.431l0.079,-0.43l0.083,-0.428l0.086,-0.424l0.089,-0.422l0.092,-0.421l0.095,-0.421l0.098,-0.414l0.101,-0.415l0.105,-0.417l0.107,-0.412l0.107,-0.403l0.112,-0.405l0.115,-0.41l0.117,-0.404l0.118,-0.4l0.12,-0.399l0.123,-0.398l0.126,-0.398l0.128,-0.397l0.127,-0.389l0.131,-0.392l0.133,-0.392l0.136,-0.392l0.136,-0.387l0.136,-0.384l0.14,-0.386l0.142,-0.388l0.143,-0.383l0.142,-0.38l0.146,-0.384l0.148,-0.384l0.148,-0.38l0.15,-0.381l0.151,-0.381l0.152,-0.379l0.154,-0.379l0.153,-0.376l0.156,-0.38l0.158,-0.382l0.158,-0.378l0.159,-0.379l0.161,-0.381l0.161,-0.379l0.165,-0.384l0.325,-0.756l0.332,-0.762l0.336,-0.766l0.34,-0.771l0.306,-0.69l0.007,-0.021l0.015,-0.042l0.019,-0.053l0.024,-0.071l0.026,-0.08l0.025,-0.075l0.076,-0.237l0.087,-0.273l0.102,-0.324l0.119,-0.37l0.13,-0.401l0.08,-0.238l0.081,-0.24l0.093,-0.266l0.096,-0.268l0.098,-0.27l0.112,-0.296l0.122,-0.314l0.127,-0.317l0.136,-0.326l0.152,-0.352l0.16,-0.354l0.17,-0.364l0.19,-0.389l0.199,-0.389l0.195,-0.365l0.139,-0.25l0.12,-0.211l0.114,-0.196l0.133,-0.224l0.129,-0.21l0.133,-0.212l0.152,-0.237l0.14,-0.211l0.15,-0.221l0.154,-0.222l0.159,-0.221l0.18,-0.245l0.165,-0.218l0.169,-0.219l0.193,-0.242l0.195,-0.236l0.192,-0.227l0.186,-0.213l0.207,-0.232l0.221,-0.239l0.216,-0.227l0.222,-0.226l0.224,-0.221l0.237,-0.227l0.242,-0.224l0.237,-0.214l0.244,-0.213l0.264,-0.222l0.257,-0.209l0.256,-0.202l0.272,-0.208l0.275,-0.203l0.275,-0.196l0.289,-0.198l0.281,-0.186l0.285,-0.183l0.302,-0.185l0.286,-0.17l0.297,-0.17l0.309,-0.17l0.293,-0.155l0.303,-0.154l0.31,-0.152l0.312,-0.145l0.317,-0.143l0.304,-0.13l0.307,-0.126l0.318,-0.125l0.312,-0.116l0.314,-0.112l0.313,-0.107l0.313,-0.101l0.315,-0.096l0.269,-0.079l0.331,-0.093l0.292,-0.08l0.292,-0.08l0.293,-0.079l0.291,-0.077l0.294,-0.076l0.295,-0.076l0.295,-0.075l0.294,-0.073l0.295,-0.073l0.299,-0.072l0.298,-0.071l0.297,-0.07l0.298,-0.069l0.3,-0.069l0.3,-0.067l0.3,-0.066l0.302,-0.066l0.301,-0.065l0.304,-0.064l0.301,-0.063l0.304,-0.062l0.307,-0.062l0.304,-0.06l0.305,-0.06l0.307,-0.059l0.307,-0.058l0.308,-0.057l0.308,-0.056l0.307,-0.056l0.311,-0.055l0.311,-0.054l0.309,-0.053l0.311,-0.052l0.312,-0.052l0.312,-0.05l0.314,-0.05l0.324,-0.051l0.618,-0.095l0.63,-0.092l0.634,-0.09l0.635,-0.087l0.637,-0.083l0.64,-0.081l0.642,-0.077l0.644,-0.074l0.645,-0.072l0.647,-0.068l0.65,-0.065l0.651,-0.062l0.652,-0.06l0.655,-0.056l0.656,-0.053l0.658,-0.05l0.66,-0.047l0.661,-0.045l0.662,-0.041l0.664,-0.038l0.665,-0.035l0.667,-0.033l0.667,-0.029l0.669,-0.026l0.67,-0.024l0.671,-0.02l0.672,-0.018l0.673,-0.014l0.674,-0.011l0.675,-0.009l0.675,-0.005l0.677,-0.003l0.677,0.001Zm-1.168,32.001l-0.533,0.005l-0.532,0.006l-0.531,0.009l-0.53,0.012l-0.529,0.013l-0.528,0.016l-0.525,0.019l-0.525,0.02l-0.523,0.023l-0.52,0.025l-0.519,0.028l-0.517,0.03l-0.515,0.032l-0.513,0.034l-0.51,0.037l-0.508,0.038l-0.505,0.041l-0.503,0.044l-0.5,0.045l-0.497,0.047l-0.493,0.05l-0.491,0.052l-0.488,0.054l-0.484,0.055l-0.48,0.058l-0.476,0.06l-0.474,0.062l-0.469,0.064l-0.465,0.066l-0.461,0.068l-0.468,0.071l-0.216,0.034l-0.225,0.036l-0.225,0.037l-0.224,0.037l-0.221,0.037l-0.223,0.038l-0.219,0.038l-0.218,0.039l-0.218,0.039l-0.217,0.04l-0.214,0.04l-0.031,0.005l-0.113,0.26l-0.347,0.782l-0.31,0.703l-0.302,0.689l-0.293,0.674l-0.285,0.662l-0.136,0.318l-0.136,0.319l-0.132,0.313l-0.13,0.31l-0.128,0.307l-0.125,0.299l-0.121,0.297l-0.122,0.297l-0.117,0.291l-0.115,0.287l-0.112,0.281l-0.109,0.278l-0.107,0.275l-0.103,0.267l-0.101,0.265l-0.1,0.266l-0.096,0.258l-0.092,0.252l-0.09,0.249l-0.089,0.25l-0.086,0.243l-0.081,0.236l-0.079,0.233l-0.077,0.23l-0.076,0.232l-0.071,0.22l-0.069,0.217l-0.066,0.215l-0.064,0.212l-0.062,0.209l-0.058,0.203l-0.055,0.195l-0.054,0.197l-0.053,0.199l-0.049,0.187l-0.045,0.181l-0.045,0.183l-0.042,0.18l-0.04,0.173l-0.037,0.171l-0.036,0.17l-0.034,0.167l-0.031,0.16l-0.029,0.159l-0.027,0.156l-0.026,0.151l-0.023,0.148l-0.022,0.148l-0.02,0.145l-0.018,0.145l-0.017,0.138l-0.015,0.138l-0.014,0.137l-0.012,0.131l-0.01,0.13l-0.009,0.13l-0.009,0.149l-0.002,0.046l-0.003,0.069l-0.003,0.061l-0.002,0.06l-0.002,0.06l-0.001,0.06l-0.001,0.031l0.313,0.002l0.775,0.006l0.774,0.007l0.772,0.009l0.772,0.01l0.769,0.012l0.769,0.012l0.768,0.014l0.765,0.014l0.769,0.015l1.521,0.033l1.519,0.035l1.514,0.036l1.507,0.038l2.999,0.075l1.488,0.036l1.482,0.035l1.48,0.032l0.731,0.015l0.734,0.014l0.732,0.014l0.729,0.012l0.728,0.012l0.726,0.01l0.724,0.009l0.722,0.008l0.719,0.006l0.719,0.005l0.716,0.003l0.713,0.002l0.713,0l0.709,-0.001l0.708,-0.003l0.705,-0.005l0.704,-0.007l0.701,-0.009l0.699,-0.011l0.696,-0.013l0.694,-0.015l0.692,-0.018l0.689,-0.02l0.687,-0.022l0.685,-0.025l0.682,-0.027l0.688,-0.03l0.331,-0.015l0.338,-0.017l0.338,-0.017l0.337,-0.018l0.335,-0.018l0.337,-0.019l0.335,-0.02l0.334,-0.021l0.334,-0.021l0.333,-0.022l0.332,-0.023l0.331,-0.024l0.332,-0.024l0.34,-0.025l1.611,-0.125l1.62,-0.125l1.622,-0.128l0.803,-0.065l0.806,-0.066l0.804,-0.066l0.803,-0.067l0.801,-0.069l0.799,-0.07l0.797,-0.071l0.794,-0.072l0.793,-0.074l0.79,-0.075l0.787,-0.077l0.785,-0.079l0.781,-0.081l0.777,-0.082l0.775,-0.085l0.771,-0.087l0.774,-0.09l0.375,-0.044l0.382,-0.046l0.38,-0.046l0.378,-0.047l0.378,-0.048l0.378,-0.048l0.375,-0.049l0.374,-0.05l0.373,-0.05l0.373,-0.051l0.371,-0.051l0.369,-0.053l0.368,-0.052l0.367,-0.054l0.367,-0.054l0.364,-0.055l0.362,-0.056l0.388,-0.06l0.375,-0.058l0.139,-0.021l-0.295,-0.293l-0.31,-0.305l-0.309,-0.302l-0.309,-0.299l-0.308,-0.296l-0.307,-0.292l-0.308,-0.29l-0.307,-0.286l-0.303,-0.28l-0.305,-0.278l-0.305,-0.276l-0.301,-0.269l-0.311,-0.275l-0.144,-0.126l-0.15,-0.13l-0.147,-0.128l-0.152,-0.13l-0.149,-0.127l-0.151,-0.128l-0.148,-0.125l-0.147,-0.123l-0.15,-0.125l-0.147,-0.121l-0.147,-0.12l-0.146,-0.12l-0.149,-0.12l-0.146,-0.117l-0.146,-0.116l-0.146,-0.115l-0.147,-0.115l-0.144,-0.113l-0.145,-0.111l-0.145,-0.112l-0.142,-0.107l-0.143,-0.108l-0.145,-0.108l-0.143,-0.106l-0.141,-0.104l-0.141,-0.102l-0.142,-0.102l-0.143,-0.102l-0.141,-0.1l-0.137,-0.096l-0.138,-0.096l-0.142,-0.097l-0.139,-0.095l-0.135,-0.091l-0.136,-0.091l-0.14,-0.091l-0.136,-0.09l-0.134,-0.086l-0.135,-0.086l-0.134,-0.085l-0.134,-0.084l-0.134,-0.082l-0.132,-0.081l-0.134,-0.08l-0.132,-0.079l-0.13,-0.076l-0.128,-0.075l-0.13,-0.075l-0.13,-0.073l-0.128,-0.071l-0.128,-0.071l-0.126,-0.069l-0.125,-0.067l-0.129,-0.068l-0.133,-0.069l-0.132,-0.068l-0.134,-0.068l-0.135,-0.068l-0.141,-0.069l-0.141,-0.069l-0.14,-0.067l-0.146,-0.069l-0.146,-0.069l-0.149,-0.069l-0.15,-0.068l-0.154,-0.069l-0.154,-0.069l-0.156,-0.068l-0.157,-0.067l-0.162,-0.07l-0.161,-0.068l-0.162,-0.067l-0.165,-0.067l-0.168,-0.068l-0.171,-0.069l-0.169,-0.066l-0.171,-0.067l-0.174,-0.066l-0.178,-0.068l-0.175,-0.065l-0.181,-0.067l-0.181,-0.066l-0.181,-0.065l-0.185,-0.065l-0.185,-0.065l-0.186,-0.065l-0.19,-0.065l-0.191,-0.064l-0.19,-0.063l-0.195,-0.064l-0.195,-0.063l-0.195,-0.062l-0.198,-0.062l-0.2,-0.063l-0.202,-0.061l-0.2,-0.061l-0.203,-0.061l-0.206,-0.061l-0.207,-0.06l-0.207,-0.059l-0.209,-0.059l-0.21,-0.059l-0.212,-0.058l-0.213,-0.058l-0.213,-0.057l-0.216,-0.057l-0.216,-0.057l-0.218,-0.056l-0.22,-0.055l-0.221,-0.056l-0.22,-0.054l-0.223,-0.054l-0.224,-0.054l-0.223,-0.053l-0.227,-0.053l-0.229,-0.052l-0.227,-0.052l-0.229,-0.051l-0.23,-0.051l-0.231,-0.05l-0.233,-0.049l-0.234,-0.049l-0.234,-0.049l-0.235,-0.048l-0.237,-0.048l-0.236,-0.046l-0.238,-0.047l-0.24,-0.046l-0.24,-0.045l-0.242,-0.045l-0.241,-0.045l-0.241,-0.043l-0.244,-0.043l-0.245,-0.043l-0.246,-0.042l-0.244,-0.042l-0.246,-0.04l-0.249,-0.041l-0.248,-0.04l-0.25,-0.039l-0.249,-0.039l-0.25,-0.038l-0.251,-0.037l-0.252,-0.037l-0.252,-0.037l-0.253,-0.035l-0.253,-0.036l-0.256,-0.034l-0.255,-0.034l-0.255,-0.034l-0.256,-0.033l-0.257,-0.032l-0.256,-0.032l-0.248,-0.03l-0.528,-0.061l-0.519,-0.058l-0.521,-0.056l-0.523,-0.053l-0.525,-0.051l-0.526,-0.049l-0.527,-0.046l-0.529,-0.044l-0.53,-0.041l-0.532,-0.039l-0.532,-0.037l-0.533,-0.034l-0.534,-0.032l-0.535,-0.029l-0.535,-0.027l-0.535,-0.024l-0.536,-0.022l-0.537,-0.02l-0.537,-0.017l-0.536,-0.015l-0.536,-0.012l-0.536,-0.01l-0.536,-0.008l-0.536,-0.005l-0.536,-0.003l-0.534,-0.001l-0.534,0.002Z" style="fill:#ffb000;"/><path d="M507.906,146.72l1.042,0.102l1.033,0.171l1.019,0.237l1.002,0.304l0.98,0.369l0.954,0.432l0.923,0.494l0.889,0.553l0.851,0.61l0.81,0.664l0.764,0.716l0.716,0.764l0.664,0.809l0.61,0.851l0.553,0.889l0.493,0.924l0.432,0.953l0.369,0.98l0.304,1.002l0.238,1.02l0.17,1.033l0.103,1.042l0.034,1.046l0,84.659l0.11,-0.065l0.233,-0.138l0.231,-0.133l0.228,-0.131l0.23,-0.13l0.232,-0.129l0.229,-0.125l0.227,-0.123l0.229,-0.123l0.227,-0.119l0.222,-0.116l0.225,-0.116l0.226,-0.115l0.22,-0.11l0.221,-0.11l0.223,-0.11l0.218,-0.105l0.219,-0.106l0.234,-0.11l0.416,-0.195l0.428,-0.195l0.424,-0.19l0.418,-0.183l0.414,-0.179l0.412,-0.175l0.404,-0.169l0.399,-0.164l0.396,-0.16l0.39,-0.155l0.384,-0.152l0.381,-0.149l0.374,-0.145l0.37,-0.141l0.363,-0.139l0.363,-0.137l0.694,-0.261l1.334,-0.498l0.634,-0.238l0.619,-0.235l0.289,-0.111l0.29,-0.112l0.284,-0.11l0.318,-0.125l0.276,-0.108l0.317,-0.122l0.319,-0.12l0.318,-0.117l0.316,-0.115l0.32,-0.112l0.32,-0.111l0.318,-0.107l0.32,-0.106l0.319,-0.103l0.321,-0.1l0.322,-0.099l0.321,-0.096l0.322,-0.093l0.321,-0.091l0.322,-0.088l0.325,-0.087l0.323,-0.084l0.324,-0.081l0.323,-0.078l0.325,-0.076l0.325,-0.074l0.325,-0.071l0.325,-0.068l0.325,-0.066l0.326,-0.063l0.328,-0.061l0.325,-0.058l0.327,-0.055l0.328,-0.053l0.327,-0.05l0.327,-0.048l0.327,-0.044l0.328,-0.042l0.328,-0.04l0.329,-0.036l0.328,-0.034l0.328,-0.031l0.328,-0.029l0.329,-0.025l0.328,-0.023l0.329,-0.02l0.328,-0.017l0.328,-0.015l0.328,-0.012l0.328,-0.008l0.328,-0.006l0.328,-0.004l0.327,0l0.329,0.002l0.326,0.006l0.326,0.008l0.328,0.011l0.326,0.013l0.326,0.017l0.325,0.019l0.325,0.023l0.325,0.025l0.324,0.028l0.323,0.031l0.323,0.033l0.323,0.037l0.323,0.039l0.32,0.042l0.32,0.045l0.32,0.047l0.319,0.051l0.32,0.053l0.315,0.055l0.318,0.059l0.316,0.062l0.314,0.063l0.314,0.067l0.313,0.07l0.312,0.072l0.31,0.074l0.312,0.078l0.309,0.08l0.305,0.082l0.307,0.085l0.306,0.088l0.305,0.09l0.304,0.093l0.3,0.095l0.301,0.097l0.298,0.1l0.298,0.102l0.297,0.105l0.297,0.108l0.294,0.11l0.289,0.11l0.294,0.115l0.29,0.117l0.287,0.118l0.288,0.121l0.285,0.123l0.284,0.125l0.282,0.127l0.279,0.128l0.28,0.132l0.28,0.135l0.277,0.135l0.271,0.136l0.276,0.141l0.272,0.141l0.268,0.142l0.269,0.146l0.265,0.146l0.267,0.149l0.264,0.151l0.259,0.151l0.263,0.155l0.257,0.155l0.258,0.157l0.256,0.16l0.253,0.16l0.25,0.161l0.252,0.165l0.25,0.166l0.246,0.165l0.247,0.17l0.243,0.169l0.241,0.17l0.242,0.174l0.241,0.175l0.237,0.175l0.234,0.175l0.236,0.179l0.234,0.181l0.23,0.18l0.23,0.181l0.226,0.182l0.228,0.186l0.226,0.187l0.22,0.183l0.224,0.19l0.222,0.191l0.214,0.186l0.22,0.193l0.218,0.195l0.21,0.19l0.211,0.193l0.214,0.198l0.212,0.198l0.207,0.197l0.206,0.198l0.206,0.199l0.203,0.2l0.204,0.203l0.201,0.202l0.199,0.202l0.201,0.207l0.196,0.204l0.195,0.206l0.194,0.206l0.193,0.207l0.19,0.208l0.19,0.208l0.189,0.21l0.19,0.214l0.186,0.211l0.182,0.209l0.186,0.216l0.182,0.214l0.181,0.214l0.183,0.218l0.176,0.213l0.178,0.217l0.178,0.221l0.173,0.214l0.173,0.219l0.173,0.219l0.172,0.221l0.173,0.224l0.169,0.221l0.166,0.22l0.167,0.222l0.166,0.224l0.165,0.224l0.164,0.224l0.163,0.227l0.162,0.226l0.16,0.227l0.16,0.227l0.156,0.224l0.158,0.229l0.159,0.233l0.155,0.229l0.153,0.228l0.151,0.227l0.155,0.235l0.151,0.232l0.149,0.229l0.15,0.234l0.149,0.234l0.147,0.234l0.145,0.231l0.146,0.236l0.145,0.236l0.144,0.236l0.141,0.234l0.143,0.238l0.142,0.238l0.138,0.234l0.142,0.243l0.137,0.236l0.136,0.237l0.137,0.24l0.137,0.242l0.135,0.241l0.133,0.238l0.14,0.254l0.257,0.472l0.26,0.484l0.258,0.488l0.254,0.489l0.251,0.49l0.248,0.492l0.245,0.493l0.242,0.495l0.238,0.495l0.236,0.498l0.235,0.502l0.229,0.5l0.228,0.501l0.224,0.503l0.223,0.506l0.22,0.507l0.216,0.505l0.214,0.508l0.212,0.512l0.209,0.511l0.206,0.51l0.204,0.513l0.202,0.515l0.2,0.516l0.197,0.517l0.194,0.517l0.191,0.517l0.19,0.518l0.188,0.522l0.186,0.522l0.182,0.52l0.18,0.522l0.179,0.524l0.176,0.524l0.174,0.525l0.173,0.526l0.169,0.527l0.168,0.526l0.165,0.526l0.164,0.527l0.162,0.53l0.159,0.531l0.158,0.529l0.155,0.529l0.154,0.53l0.151,0.531l0.15,0.531l0.147,0.53l0.146,0.532l0.144,0.533l0.142,0.53l0.14,0.534l0.139,0.533l0.136,0.532l0.134,0.532l0.133,0.532l0.131,0.532l0.129,0.535l0.128,0.532l0.125,0.531l0.124,0.532l0.122,0.533l0.12,0.53l0.119,0.533l0.117,0.532l0.115,0.53l0.114,0.53l0.112,0.532l0.11,0.529l0.108,0.529l0.107,0.529l0.105,0.526l0.104,0.531l0.102,0.527l0.101,0.528l0.098,0.524l0.098,0.524l0.095,0.526l0.095,0.525l0.092,0.522l0.091,0.521l0.09,0.523l0.088,0.52l0.086,0.517l0.085,0.519l0.084,0.52l0.081,0.514l0.081,0.516l0.079,0.515l0.077,0.511l0.076,0.513l0.074,0.51l0.074,0.508l0.071,0.509l0.071,0.507l0.068,0.504l0.068,0.504l0.066,0.502l0.064,0.501l0.063,0.5l0.062,0.496l0.061,0.497l0.059,0.495l0.057,0.492l0.057,0.492l0.054,0.489l0.054,0.487l0.052,0.485l0.051,0.486l0.05,0.482l0.048,0.478l0.047,0.478l0.046,0.477l0.044,0.474l0.043,0.474l0.042,0.471l0.04,0.466l0.039,0.465l0.038,0.463l0.037,0.46l0.035,0.462l0.035,0.459l0.032,0.452l0.032,0.452l0.03,0.45l0.029,0.446l0.029,0.448l0.026,0.441l0.026,0.439l0.024,0.441l0.023,0.434l0.022,0.432l0.02,0.429l0.02,0.427l0.018,0.427l0.017,0.422l0.016,0.417l0.015,0.417l0.013,0.417l0.012,0.409l0.012,0.407l0.01,0.407l0.008,0.404l0.008,0.399l0.006,0.397l0.006,0.396l0.004,0.392l0.003,0.388l0.001,0.386l0.001,0.357l-0.033,1.046l-0.1,1.043l-0.169,1.033l-0.236,1.02l-0.303,1.002l-0.367,0.981l-0.43,0.954l-0.492,0.924l-0.552,0.89l-0.608,0.853l-0.663,0.81l-0.715,0.765l-0.763,0.717l-0.808,0.666l-0.85,0.611l-0.888,0.554l-0.923,0.496l-0.953,0.433l-0.979,0.371l-1.002,0.305l-1.019,0.24l-1.033,0.172l-1.041,0.104l-1.047,0.036l-1.046,-0.032l-1.042,-0.101l-1.034,-0.169l-1.02,-0.236l-1.002,-0.302l-0.981,-0.368l-0.954,-0.43l-0.924,-0.492l-0.89,-0.552l-0.852,-0.608l-0.811,-0.663l-0.765,-0.715l-0.717,-0.763l-0.666,-0.808l-0.611,-0.85l-0.554,-0.888l-0.495,-0.923l-0.434,-0.953l-0.37,-0.979l-0.306,-1.001l-0.239,-1.02l-0.173,-1.032l-0.104,-1.042l-0.036,-1.047l0,-0.311l-0.002,-0.29l-0.002,-0.295l-0.003,-0.299l-0.004,-0.3l-0.005,-0.308l-0.006,-0.312l-0.007,-0.313l-0.008,-0.318l-0.009,-0.324l-0.009,-0.328l-0.011,-0.326l-0.012,-0.333l-0.013,-0.34l-0.013,-0.34l-0.015,-0.341l-0.016,-0.348l-0.017,-0.351l-0.018,-0.354l-0.018,-0.357l-0.02,-0.356l-0.021,-0.364l-0.022,-0.367l-0.023,-0.365l-0.025,-0.373l-0.025,-0.373l-0.026,-0.377l-0.028,-0.381l-0.028,-0.38l-0.029,-0.382l-0.031,-0.387l-0.032,-0.39l-0.033,-0.393l-0.034,-0.395l-0.035,-0.394l-0.036,-0.398l-0.038,-0.399l-0.038,-0.402l-0.04,-0.404l-0.041,-0.409l-0.042,-0.408l-0.043,-0.408l-0.044,-0.412l-0.046,-0.414l-0.047,-0.416l-0.047,-0.416l-0.049,-0.42l-0.05,-0.418l-0.052,-0.421l-0.052,-0.425l-0.054,-0.424l-0.055,-0.425l-0.056,-0.427l-0.057,-0.428l-0.059,-0.429l-0.059,-0.431l-0.061,-0.43l-0.062,-0.433l-0.064,-0.435l-0.064,-0.433l-0.066,-0.436l-0.067,-0.435l-0.068,-0.436l-0.069,-0.439l-0.071,-0.436l-0.071,-0.438l-0.074,-0.442l-0.074,-0.44l-0.075,-0.438l-0.077,-0.441l-0.078,-0.442l-0.079,-0.439l-0.081,-0.441l-0.082,-0.442l-0.083,-0.443l-0.084,-0.441l-0.085,-0.441l-0.087,-0.44l-0.088,-0.443l-0.089,-0.442l-0.091,-0.441l-0.092,-0.441l-0.092,-0.439l-0.095,-0.441l-0.095,-0.441l-0.097,-0.438l-0.098,-0.438l-0.099,-0.44l-0.1,-0.437l-0.102,-0.437l-0.103,-0.438l-0.104,-0.435l-0.105,-0.433l-0.107,-0.434l-0.108,-0.433l-0.109,-0.433l-0.111,-0.431l-0.111,-0.429l-0.113,-0.427l-0.114,-0.429l-0.115,-0.425l-0.116,-0.424l-0.119,-0.425l-0.118,-0.422l-0.12,-0.42l-0.122,-0.419l-0.122,-0.418l-0.124,-0.416l-0.124,-0.412l-0.126,-0.411l-0.127,-0.411l-0.129,-0.41l-0.13,-0.407l-0.13,-0.404l-0.132,-0.402l-0.132,-0.4l-0.134,-0.398l-0.135,-0.396l-0.136,-0.393l-0.138,-0.394l-0.138,-0.387l-0.139,-0.385l-0.14,-0.385l-0.142,-0.382l-0.143,-0.38l-0.142,-0.375l-0.145,-0.373l-0.145,-0.37l-0.146,-0.367l-0.148,-0.367l-0.148,-0.361l-0.148,-0.357l-0.15,-0.356l-0.151,-0.355l-0.151,-0.348l-0.152,-0.344l-0.153,-0.344l-0.154,-0.34l-0.155,-0.337l-0.154,-0.329l-0.156,-0.329l-0.157,-0.326l-0.157,-0.321l-0.158,-0.318l-0.158,-0.314l-0.159,-0.31l-0.159,-0.306l-0.159,-0.301l-0.161,-0.299l-0.167,-0.306l-0.073,-0.133l-0.081,-0.147l-0.08,-0.142l-0.08,-0.141l-0.08,-0.14l-0.082,-0.142l-0.082,-0.142l-0.078,-0.133l-0.082,-0.14l-0.08,-0.135l-0.08,-0.133l-0.082,-0.136l-0.081,-0.132l-0.08,-0.131l-0.08,-0.129l-0.083,-0.132l-0.08,-0.127l-0.08,-0.126l-0.08,-0.124l-0.083,-0.128l-0.08,-0.123l-0.078,-0.118l-0.083,-0.124l-0.081,-0.122l-0.081,-0.119l-0.077,-0.113l-0.08,-0.116l-0.082,-0.119l-0.08,-0.113l-0.08,-0.113l-0.079,-0.111l-0.079,-0.109l-0.08,-0.109l-0.079,-0.108l-0.079,-0.107l-0.079,-0.105l-0.081,-0.107l-0.079,-0.103l-0.076,-0.098l-0.078,-0.101l-0.078,-0.099l-0.078,-0.098l-0.081,-0.1l-0.074,-0.092l-0.077,-0.094l-0.08,-0.097l-0.074,-0.088l-0.077,-0.091l-0.076,-0.09l-0.074,-0.085l-0.078,-0.09l-0.075,-0.085l-0.073,-0.082l-0.074,-0.083l-0.075,-0.082l-0.075,-0.082l-0.074,-0.079l-0.073,-0.078l-0.073,-0.077l-0.073,-0.076l-0.07,-0.072l-0.072,-0.073l-0.072,-0.072l-0.069,-0.069l-0.071,-0.07l-0.07,-0.067l-0.07,-0.068l-0.07,-0.066l-0.066,-0.063l-0.066,-0.06l-0.069,-0.063l-0.071,-0.065l-0.064,-0.057l-0.064,-0.056l-0.07,-0.061l-0.063,-0.054l-0.062,-0.053l-0.068,-0.056l-0.062,-0.051l-0.061,-0.05l-0.064,-0.052l-0.062,-0.049l-0.062,-0.048l-0.06,-0.046l-0.058,-0.045l-0.061,-0.045l-0.06,-0.044l-0.057,-0.042l-0.057,-0.04l-0.058,-0.041l-0.058,-0.041l-0.053,-0.037l-0.058,-0.038l-0.053,-0.036l-0.053,-0.034l-0.056,-0.036l-0.053,-0.034l-0.052,-0.032l-0.051,-0.031l-0.052,-0.032l-0.049,-0.029l-0.052,-0.03l-0.049,-0.028l-0.047,-0.026l-0.051,-0.028l-0.046,-0.025l-0.049,-0.026l-0.047,-0.024l-0.044,-0.023l-0.048,-0.024l-0.045,-0.022l-0.042,-0.02l-0.044,-0.021l-0.046,-0.021l-0.043,-0.02l-0.042,-0.018l-0.043,-0.019l-0.041,-0.017l-0.043,-0.017l-0.041,-0.017l-0.038,-0.015l-0.044,-0.017l-0.04,-0.014l-0.039,-0.015l-0.039,-0.013l-0.039,-0.014l-0.04,-0.013l-0.039,-0.013l-0.04,-0.012l-0.037,-0.012l-0.038,-0.011l-0.039,-0.011l-0.037,-0.011l-0.041,-0.011l-0.038,-0.009l-0.036,-0.009l-0.039,-0.01l-0.039,-0.009l-0.039,-0.008l-0.038,-0.008l-0.04,-0.009l-0.038,-0.007l-0.037,-0.007l-0.042,-0.007l-0.039,-0.007l-0.04,-0.006l-0.04,-0.006l-0.041,-0.006l-0.042,-0.005l-0.041,-0.005l-0.042,-0.005l-0.042,-0.004l-0.044,-0.005l-0.044,-0.003l-0.044,-0.004l-0.045,-0.003l-0.046,-0.003l-0.047,-0.002l-0.047,-0.002l-0.047,-0.002l-0.05,-0.001l-0.05,-0.001l-0.05,0l-0.052,0l-0.052,0.001l-0.053,0.001l-0.055,0.001l-0.055,0.002l-0.056,0.003l-0.059,0.003l-0.058,0.003l-0.059,0.004l-0.062,0.005l-0.061,0.005l-0.063,0.006l-0.065,0.007l-0.066,0.007l-0.067,0.008l-0.068,0.009l-0.069,0.01l-0.072,0.01l-0.073,0.011l-0.072,0.012l-0.076,0.013l-0.077,0.013l-0.077,0.015l-0.078,0.015l-0.082,0.016l-0.082,0.018l-0.084,0.018l-0.085,0.019l-0.087,0.021l-0.088,0.021l-0.091,0.023l-0.091,0.023l-0.09,0.024l-0.095,0.026l-0.097,0.028l-0.098,0.028l-0.099,0.03l-0.099,0.03l-0.103,0.032l-0.104,0.034l-0.105,0.035l-0.108,0.036l-0.108,0.037l-0.109,0.039l-0.113,0.041l-0.114,0.042l-0.113,0.042l-0.117,0.045l-0.158,0.062l-0.348,0.137l-0.383,0.149l-0.377,0.146l-0.379,0.144l-0.715,0.272l-0.701,0.263l-1.329,0.496l-0.633,0.238l-0.298,0.113l-0.297,0.113l-0.289,0.111l-0.282,0.109l-0.275,0.107l-0.268,0.106l-0.262,0.105l-0.253,0.102l-0.248,0.102l-0.239,0.1l-0.23,0.097l-0.224,0.097l-0.219,0.096l-0.209,0.094l-0.201,0.092l-0.211,0.098l-0.078,0.037l-0.092,0.044l-0.092,0.045l-0.087,0.043l-0.087,0.043l-0.087,0.043l-0.081,0.041l-0.08,0.042l-0.082,0.043l-0.077,0.04l-0.074,0.04l-0.074,0.04l-0.072,0.04l-0.068,0.037l-0.067,0.038l-0.069,0.04l-0.066,0.038l-0.061,0.036l-0.059,0.035l-0.061,0.037l-0.06,0.037l-0.057,0.035l-0.051,0.032l-0.052,0.033l-0.052,0.034l-0.047,0.031l-0.049,0.033l-0.049,0.033l-0.044,0.031l-0.043,0.03l-0.041,0.03l-0.037,0.026l-0.04,0.03l-0.039,0.029l-0.038,0.029l-0.034,0.026l-0.033,0.026l-0.035,0.028l-0.028,0.024l-0.031,0.025l-0.029,0.024l-0.03,0.026l-0.029,0.025l-0.025,0.023l-0.025,0.022l-0.024,0.022l-0.023,0.022l-0.025,0.023l-0.019,0.019l-0.023,0.022l-0.022,0.023l-0.02,0.019l-0.022,0.024l-0.02,0.021l-0.019,0.02l-0.019,0.021l-0.016,0.019l-0.02,0.022l-0.02,0.023l-0.016,0.019l-0.017,0.021l-0.02,0.025l-0.018,0.023l-0.015,0.019l-0.018,0.024l-0.019,0.025l-0.019,0.026l-0.029,0.04l-0.093,0.131l-0.105,0.15l-0.107,0.154l-0.106,0.156l-0.105,0.154l-0.105,0.156l-0.106,0.16l-0.104,0.158l-0.105,0.16l-0.105,0.164l-0.104,0.162l-0.106,0.167l-0.106,0.169l-0.103,0.166l-0.103,0.168l-0.105,0.172l-0.105,0.175l-0.103,0.172l-0.104,0.176l-0.102,0.174l-0.104,0.179l-0.104,0.18l-0.101,0.179l-0.103,0.183l-0.103,0.184l-0.103,0.186l-0.101,0.184l-0.102,0.187l-0.101,0.19l-0.1,0.187l-0.103,0.195l-0.101,0.193l-0.099,0.191l-0.099,0.192l-0.1,0.196l-0.101,0.201l-0.099,0.199l-0.098,0.197l-0.099,0.201l-0.099,0.205l-0.097,0.201l-0.098,0.204l-0.099,0.209l-0.095,0.203l-0.097,0.208l-0.098,0.212l-0.094,0.207l-0.095,0.211l-0.097,0.215l-0.095,0.213l-0.094,0.214l-0.094,0.216l-0.094,0.216l-0.093,0.217l-0.093,0.218l-0.094,0.222l-0.092,0.221l-0.091,0.22l-0.093,0.226l-0.089,0.219l-0.092,0.228l-0.091,0.227l-0.089,0.223l-0.09,0.23l-0.089,0.227l-0.088,0.229l-0.089,0.232l-0.089,0.233l-0.087,0.232l-0.086,0.231l-0.088,0.236l-0.085,0.234l-0.087,0.237l-0.085,0.235l-0.084,0.236l-0.086,0.243l-0.084,0.237l-0.083,0.238l-0.083,0.242l-0.083,0.243l-0.082,0.24l-0.081,0.241l-0.083,0.249l-0.081,0.246l-0.08,0.243l-0.079,0.243l-0.08,0.248l-0.076,0.238l-0.16,0.508l-0.155,0.499l-0.153,0.502l-0.152,0.506l-0.149,0.507l-0.147,0.51l-0.146,0.513l-0.143,0.514l-0.142,0.515l-0.139,0.518l-0.138,0.522l-0.136,0.524l-0.134,0.525l-0.132,0.525l-0.13,0.526l-0.128,0.53l-0.126,0.533l-0.124,0.532l-0.122,0.533l-0.12,0.536l-0.118,0.537l-0.116,0.536l-0.114,0.539l-0.113,0.539l-0.11,0.541l-0.108,0.54l-0.106,0.542l-0.105,0.545l-0.102,0.542l-0.1,0.543l-0.098,0.546l-0.097,0.544l-0.094,0.545l-0.092,0.545l-0.09,0.544l-0.089,0.546l-0.086,0.546l-0.085,0.546l-0.082,0.545l-0.081,0.545l-0.079,0.544l-0.076,0.544l-0.075,0.542l-0.073,0.544l-0.07,0.543l-0.069,0.542l-0.067,0.541l-0.065,0.54l-0.063,0.539l-0.062,0.54l-0.059,0.538l-0.057,0.533l-0.056,0.535l-0.054,0.535l-0.051,0.532l-0.05,0.531l-0.048,0.528l-0.046,0.527l-0.045,0.527l-0.042,0.524l-0.041,0.521l-0.038,0.52l-0.037,0.52l-0.036,0.516l-0.033,0.511l-0.031,0.513l-0.03,0.512l-0.028,0.506l-0.026,0.503l-0.025,0.501l-0.022,0.501l-0.021,0.497l-0.019,0.493l-0.018,0.491l-0.016,0.489l-0.014,0.483l-0.012,0.482l-0.011,0.48l-0.009,0.473l-0.007,0.471l-0.005,0.47l-0.005,0.465l-0.002,0.46l-0.001,0.483l-0.036,1.046l-0.104,1.041l-0.172,1.032l-0.239,1.019l-0.305,1.001l-0.37,0.979l-0.433,0.952l-0.495,0.923l-0.554,0.888l-0.61,0.85l-0.665,0.808l-0.717,0.763l-0.764,0.714l-0.81,0.663l-0.851,0.609l-0.89,0.551l-0.923,0.493l-0.954,0.43l-0.979,0.368l-1.002,0.303l-1.019,0.237l-1.033,0.169l-1.042,0.102l-1.046,0.033l-1.045,-0.035l-1.042,-0.103l-1.032,-0.171l-1.019,-0.239l-1.001,-0.304l-0.98,-0.369l-0.953,-0.433l-0.922,-0.494l-0.889,-0.553l-0.85,-0.61l-0.808,-0.664l-0.764,-0.716l-0.715,-0.764l-0.664,-0.809l-0.609,-0.851l-0.552,-0.888l-0.493,-0.924l-0.432,-0.953l-0.368,-0.979l-0.304,-1.002l-0.238,-1.019l-0.17,-1.032l-0.103,-1.042l-0.034,-1.046l0,-175.191l0.035,-1.046l0.102,-1.042l0.171,-1.033l0.237,-1.02l0.304,-1.002l0.369,-0.98l0.432,-0.953l0.494,-0.924l0.553,-0.889l0.61,-0.851l0.664,-0.809l0.716,-0.764l0.764,-0.716l0.809,-0.664l0.851,-0.61l0.889,-0.553l0.924,-0.494l0.953,-0.432l0.98,-0.369l1.002,-0.304l1.02,-0.237l1.033,-0.171l1.042,-0.102l1.046,-0.035l1.047,0.035Z" style="fill:#ffb000;"/><path d="M659.109,316.425l0.359,0.009l0.366,0.015l0.368,0.022l0.374,0.029l0.378,0.038l0.372,0.044l0.383,0.053l0.314,0.05l0.107,-0.008l0.207,-0.011l0.206,-0.009l0.207,-0.006l0.207,-0.004l0.207,0l0.207,0.001l0.206,0.005l0.207,0.007l0.207,0.01l0.206,0.013l0.207,0.015l0.206,0.018l0.205,0.02l0.206,0.023l0.205,0.026l0.205,0.029l0.205,0.031l0.204,0.034l0.203,0.036l0.203,0.039l0.203,0.042l0.202,0.044l0.202,0.047l0.2,0.05l0.201,0.052l0.199,0.054l0.199,0.058l0.198,0.059l0.197,0.063l0.196,0.065l0.196,0.067l0.195,0.07l0.193,0.073l0.193,0.075l0.192,0.077l0.191,0.08l0.19,0.082l0.188,0.085l0.188,0.088l0.186,0.089l0.185,0.092l0.184,0.095l0.183,0.097l0.182,0.099l0.18,0.102l0.179,0.103l0.177,0.107l0.176,0.108l0.175,0.111l0.173,0.113l0.172,0.115l0.17,0.117l0.169,0.12l0.167,0.122l0.166,0.124l0.164,0.126l0.162,0.128l0.161,0.13l0.159,0.133l0.157,0.134l0.156,0.136l0.154,0.139l0.151,0.14l0.151,0.142l0.148,0.145l0.146,0.146l0.145,0.148l0.142,0.15l0.141,0.151l0.138,0.154l0.137,0.155l0.135,0.157l0.132,0.159l0.131,0.161l0.128,0.162l0.126,0.164l0.125,0.165l0.122,0.167l0.12,0.169l0.117,0.17l0.116,0.171l0.113,0.174l0.111,0.174l0.109,0.176l0.106,0.177l0.104,0.179l0.102,0.18l0.099,0.182l0.098,0.182l0.094,0.184l0.093,0.185l0.09,0.186l0.087,0.188l0.085,0.188l0.083,0.19l0.08,0.191l0.078,0.191l0.075,0.193l0.073,0.194l0.07,0.194l0.068,0.196l0.065,0.196l0.063,0.197l0.06,0.198l0.058,0.199l0.055,0.199l0.052,0.2l0.05,0.201l0.047,0.201l0.045,0.202l0.042,0.203l0.039,0.203l0.037,0.204l0.034,0.204l0.031,0.204l0.029,0.205l0.026,0.205l0.024,0.206l0.021,0.205l0.018,0.206l0.015,0.207l0.013,0.206l0.01,0.207l0.008,0.206l0.005,0.207l0.002,0.207l-0.001,0.207l-0.002,0.235l-0.009,0.385l-0.017,0.392l-0.023,0.386l-0.031,0.393l-0.039,0.401l-0.047,0.407l-0.054,0.401l-0.061,0.395l-0.072,0.415l-0.083,0.421l-0.087,0.4l-0.1,0.421l-0.108,0.412l-0.117,0.418l-0.131,0.423l-0.137,0.414l-0.154,0.433l-0.162,0.423l-0.169,0.413l-0.182,0.416l-0.2,0.432l-0.209,0.421l-0.208,0.396l-0.227,0.41l-0.242,0.412l-0.255,0.41l-0.261,0.396l-0.273,0.394l-0.29,0.395l-0.284,0.368l-0.312,0.384l-0.318,0.371l-0.313,0.346l-0.341,0.36l-0.345,0.344l-0.348,0.33l-0.359,0.324l-0.365,0.312l-0.379,0.308l-0.379,0.292l-0.383,0.28l-0.396,0.274l-0.392,0.256l-0.4,0.249l-0.408,0.238l-0.41,0.227l-0.41,0.213l-0.407,0.2l-0.417,0.192l-0.422,0.182l-0.419,0.168l-0.412,0.155l-0.422,0.148l-0.419,0.135l-0.417,0.124l-0.415,0.113l-0.412,0.103l-0.423,0.095l-0.414,0.084l-0.408,0.073l-0.408,0.064l-0.408,0.055l-0.407,0.047l-0.405,0.037l-0.4,0.028l-0.395,0.02l-0.393,0.012l-0.397,0.004l-0.391,-0.004l-0.38,-0.011l-0.388,-0.02l-0.383,-0.026l-0.375,-0.034l-0.376,-0.04l-0.368,-0.047l-0.371,-0.055l-0.37,-0.061l-0.364,-0.068l-0.358,-0.073l-0.355,-0.08l-0.36,-0.087l-0.354,-0.093l-0.342,-0.097l-0.348,-0.105l-0.351,-0.113l-0.338,-0.116l-0.336,-0.121l-0.333,-0.128l-0.337,-0.136l-0.334,-0.141l-0.327,-0.146l-0.323,-0.151l-0.319,-0.156l-0.324,-0.165l-0.315,-0.169l-0.317,-0.176l-0.316,-0.184l-0.309,-0.187l-0.304,-0.191l-0.297,-0.195l-0.31,-0.211l-0.296,-0.21l-0.29,-0.213l-0.296,-0.226l-0.297,-0.236l-0.28,-0.232l-0.277,-0.236l-0.288,-0.256l-0.272,-0.251l-0.275,-0.264l-0.271,-0.271l-0.253,-0.261l-0.265,-0.284l-0.267,-0.298l-0.241,-0.28l-0.244,-0.294l-0.254,-0.319l-0.238,-0.313l-0.231,-0.314l-0.221,-0.315l-0.224,-0.332l-0.224,-0.348l-0.206,-0.334l-0.206,-0.349l-0.198,-0.352l-0.19,-0.356l-0.241,-0.473l-0.312,-0.67l-0.332,-0.821l-0.288,-0.84l-0.244,-0.854l-0.204,-0.891l-0.158,-0.925l-0.108,-0.954l-0.049,-0.905l-0.004,-0.918l0.053,-0.958l0.102,-0.922l0.148,-0.882l0.185,-0.836l0.225,-0.817l0.263,-0.799l0.287,-0.745l0.315,-0.717l0.342,-0.69l0.351,-0.636l0.357,-0.587l0.372,-0.561l0.397,-0.551l0.381,-0.486l0.376,-0.45l0.396,-0.441l0.385,-0.401l0.379,-0.371l0.383,-0.354l0.374,-0.325l0.372,-0.307l0.384,-0.299l0.366,-0.27l0.355,-0.249l0.369,-0.246l0.356,-0.224l0.356,-0.214l0.349,-0.199l0.339,-0.184l0.343,-0.177l0.339,-0.167l0.338,-0.158l0.335,-0.148l0.338,-0.142l0.325,-0.13l0.329,-0.124l0.331,-0.118l0.327,-0.11l0.331,-0.105l0.329,-0.098l0.325,-0.091l0.324,-0.084l0.328,-0.08l0.331,-0.074l0.325,-0.067l0.326,-0.062l0.338,-0.058l0.338,-0.051l0.33,-0.045l0.336,-0.04l0.339,-0.035l0.34,-0.028l0.35,-0.024l0.348,-0.017l0.348,-0.01l0.351,-0.005l0.356,0.001Zm-13.422,19.301l0.001,0.023l-0.001,-0.068l0,0.045Zm1.438,-3.233l0,0.01l0,-0.017l0,0.007Z" style="fill:#ffb000;"/></g></g></svg>